{
.appVersion = "121";
DisplayStrings = (
"/newGlyph"
);
copyright = "Copyright (c) pixeldroid (https://github.com/pixeldroid/fonts/menu),\012with Reserved Font Name: \"Menu\".\012\012This Font Software is licensed under the SIL Open Font License, Version 1.1.\012This license is also available with a FAQ at: http://scripts.sil.org/OFL";
date = "2010-07-30 07:09:53 +0000";
familyName = Menu;
featurePrefixes = (
{
automatic = 1;
code = "languagesystem DFLT dflt;\012";
name = Languagesystems;
}
);
fontMaster = (
{
ascender = 768;
capHeight = 700;
custom = Medium;
customParameters = (
{
name = "CVT Table";
value = (
34,
648
);
}
);
descender = -256;
id = "1701E5CE-665D-45EA-89A5-8373A0C97990";
weightValue = 500;
widthValue = 5;
xHeight = 500;
}
);
glyphs = (
{
glyphname = A;
layers = (
{
layerId = "1701E5CE-665D-45EA-89A5-8373A0C97990";
paths = (
{
closed = 1;
nodes = (
"448 0 LINE",
"512 0 LINE",
"512 64 LINE",
"512 128 LINE",
"512 192 LINE",
"512 256 LINE",
"512 320 LINE",
"448 320 LINE",
"448 384 LINE",
"384 384 LINE",
"384 448 LINE",
"320 448 LINE",
"256 448 LINE",
"192 448 LINE",
"192 384 LINE",
"128 384 LINE",
"128 320 LINE",
"64 320 LINE",
"64 256 LINE",
"64 192 LINE",
"64 128 LINE",
"64 64 LINE",
"64 0 LINE",
"128 0 LINE",
"192 0 LINE",
"256 0 LINE",
"256 64 LINE",
"256 128 LINE",
"320 128 LINE",
"384 128 LINE",
"384 64 LINE",
"384 0 LINE",
"448 0 LINE"
);
},
{
closed = 1;
nodes = (
"320 192 LINE",
"256 192 LINE",
"256 256 LINE",
"256 320 LINE",
"320 320 LINE",
"384 320 LINE",
"384 256 LINE",
"384 192 LINE",
"320 192 LINE"
);
}
);
width = 512;
}
);
note = A;
unicode = 0041;
},
{
glyphname = B;
layers = (
{
layerId = "1701E5CE-665D-45EA-89A5-8373A0C97990";
paths = (
{
closed = 1;
nodes = (
"384 0 LINE",
"448 0 LINE",
"448 64 LINE",
"512 64 LINE",
"512 128 LINE",
"512 192 LINE",
"448 192 LINE",
"448 256 LINE",
"512 256 LINE",
"512 320 LINE",
"512 384 LINE",
"448 384 LINE",
"448 448 LINE",
"384 448 LINE",
"320 448 LINE",
"256 448 LINE",
"192 448 LINE",
"128 448 LINE",
"64 448 LINE",
"64 384 LINE",
"64 320 LINE",
"64 256 LINE",
"64 192 LINE",
"64 128 LINE",
"64 64 LINE",
"64 0 LINE",
"128 0 LINE",
"192 0 LINE",
"256 0 LINE",
"320 0 LINE",
"384 0 LINE"
);
},
{
closed = 1;
nodes = (
"320 64 LINE",
"256 64 LINE",
"256 128 LINE",
"256 192 LINE",
"320 192 LINE",
"384 192 LINE",
"384 128 LINE",
"384 64 LINE",
"320 64 LINE"
);
},
{
closed = 1;
nodes = (
"320 256 LINE",
"256 256 LINE",
"256 320 LINE",
"256 384 LINE",
"320 384 LINE",
"384 384 LINE",
"384 320 LINE",
"384 256 LINE",
"320 256 LINE"
);
}
);
width = 512;
}
);
note = B;
unicode = 0042;
},
{
glyphname = C;
layers = (
{
layerId = "1701E5CE-665D-45EA-89A5-8373A0C97990";
paths = (
{
closed = 1;
nodes = (
"384 0 LINE",
"448 0 LINE",
"448 64 LINE",
"512 64 LINE",
"512 128 LINE",
"448 128 LINE",
"384 128 LINE",
"384 64 LINE",
"320 64 LINE",
"256 64 LINE",
"256 128 LINE",
"256 192 LINE",
"256 256 LINE",
"256 320 LINE",
"256 384 LINE",
"320 384 LINE",
"384 384 LINE",
"384 320 LINE",
"448 320 LINE",
"512 320 LINE",
"512 384 LINE",
"448 384 LINE",
"448 448 LINE",
"384 448 LINE",
"320 448 LINE",
"256 448 LINE",
"192 448 LINE",
"192 384 LINE",
"128 384 LINE",
"128 320 LINE",
"64 320 LINE",
"64 256 LINE",
"64 192 LINE",
"64 128 LINE",
"128 128 LINE",
"128 64 LINE",
"192 64 LINE",
"192 0 LINE",
"256 0 LINE",
"320 0 LINE",
"384 0 LINE"
);
}
);
width = 512;
}
);
note = C;
unicode = 0043;
},
{
glyphname = D;
layers = (
{
layerId = "1701E5CE-665D-45EA-89A5-8373A0C97990";
paths = (
{
closed = 1;
nodes = (
"320 0 LINE",
"384 0 LINE",
"384 64 LINE",
"448 64 LINE",
"448 128 LINE",
"512 128 LINE",
"512 192 LINE",
"512 256 LINE",
"512 320 LINE",
"448 320 LINE",
"448 384 LINE",
"384 384 LINE",
"384 448 LINE",
"320 448 LINE",
"256 448 LINE",
"192 448 LINE",
"128 448 LINE",
"64 448 LINE",
"64 384 LINE",
"64 320 LINE",
"64 256 LINE",
"64 192 LINE",
"64 128 LINE",
"64 64 LINE",
"64 0 LINE",
"128 0 LINE",
"192 0 LINE",
"256 0 LINE",
"320 0 LINE"
);
},
{
closed = 1;
nodes = (
"320 64 LINE",
"256 64 LINE",
"256 128 LINE",
"256 192 LINE",
"256 256 LINE",
"256 320 LINE",
"256 384 LINE",
"320 384 LINE",
"320 320 LINE",
"384 320 LINE",
"384 256 LINE",
"384 192 LINE",
"384 128 LINE",
"320 128 LINE",
"320 64 LINE"
);
}
);
width = 512;
}
);
note = D;
unicode = 0044;
},
{
glyphname = E;
layers = (
{
layerId = "1701E5CE-665D-45EA-89A5-8373A0C97990";
paths = (
{
closed = 1;
nodes = (
"448 64 LINE",
"384 64 LINE",
"320 64 LINE",
"256 64 LINE",
"256 128 LINE",
"256 192 LINE",
"320 192 LINE",
"384 192 LINE",
"448 192 LINE",
"448 256 LINE",
"384 256 LINE",
"320 256 LINE",
"256 256 LINE",
"256 320 LINE",
"256 384 LINE",
"320 384 LINE",
"384 384 LINE",
"448 384 LINE",
"512 384 LINE",
"512 448 LINE",
"448 448 LINE",
"384 448 LINE",
"320 448 LINE",
"256 448 LINE",
"192 448 LINE",
"128 448 LINE",
"64 448 LINE",
"64 384 LINE",
"64 320 LINE",
"64 256 LINE",
"64 192 LINE",
"64 128 LINE",
"64 64 LINE",
"64 0 LINE",
"128 0 LINE",
"192 0 LINE",
"256 0 LINE",
"320 0 LINE",
"384 0 LINE",
"448 0 LINE",
"512 0 LINE",
"512 64 LINE",
"448 64 LINE"
);
}
);
width = 512;
}
);
note = E;
unicode = 0045;
},
{
glyphname = F;
layers = (
{
layerId = "1701E5CE-665D-45EA-89A5-8373A0C97990";
paths = (
{
closed = 1;
nodes = (
"192 0 LINE",
"256 0 LINE",
"256 64 LINE",
"256 128 LINE",
"256 192 LINE",
"320 192 LINE",
"384 192 LINE",
"448 192 LINE",
"448 256 LINE",
"384 256 LINE",
"320 256 LINE",
"256 256 LINE",
"256 320 LINE",
"256 384 LINE",
"320 384 LINE",
"384 384 LINE",
"448 384 LINE",
"512 384 LINE",
"512 448 LINE",
"448 448 LINE",
"384 448 LINE",
"320 448 LINE",
"256 448 LINE",
"192 448 LINE",
"128 448 LINE",
"64 448 LINE",
"64 384 LINE",
"64 320 LINE",
"64 256 LINE",
"64 192 LINE",
"64 128 LINE",
"64 64 LINE",
"64 0 LINE",
"128 0 LINE",
"192 0 LINE"
);
}
);
width = 512;
}
);
note = F;
unicode = 0046;
},
{
glyphname = G;
layers = (
{
layerId = "1701E5CE-665D-45EA-89A5-8373A0C97990";
paths = (
{
closed = 1;
nodes = (
"448 0 LINE",
"512 0 LINE",
"512 64 LINE",
"512 128 LINE",
"512 192 LINE",
"512 256 LINE",
"448 256 LINE",
"384 256 LINE",
"320 256 LINE",
"320 192 LINE",
"384 192 LINE",
"384 128 LINE",
"384 64 LINE",
"320 64 LINE",
"256 64 LINE",
"256 128 LINE",
"256 192 LINE",
"256 256 LINE",
"256 320 LINE",
"256 384 LINE",
"320 384 LINE",
"384 384 LINE",
"384 320 LINE",
"448 320 LINE",
"512 320 LINE",
"512 384 LINE",
"448 384 LINE",
"448 448 LINE",
"384 448 LINE",
"320 448 LINE",
"256 448 LINE",
"192 448 LINE",
"192 384 LINE",
"128 384 LINE",
"128 320 LINE",
"64 320 LINE",
"64 256 LINE",
"64 192 LINE",
"64 128 LINE",
"128 128 LINE",
"128 64 LINE",
"192 64 LINE",
"192 0 LINE",
"256 0 LINE",
"320 0 LINE",
"384 0 LINE",
"448 0 LINE"
);
}
);
width = 512;
}
);
note = G;
unicode = 0047;
},
{
glyphname = H;
layers = (
{
layerId = "1701E5CE-665D-45EA-89A5-8373A0C97990";
paths = (
{
closed = 1;
nodes = (
"448 0 LINE",
"512 0 LINE",
"512 64 LINE",
"512 128 LINE",
"512 192 LINE",
"512 256 LINE",
"512 320 LINE",
"512 384 LINE",
"512 448 LINE",
"448 448 LINE",
"384 448 LINE",
"384 384 LINE",
"384 320 LINE",
"384 256 LINE",
"320 256 LINE",
"256 256 LINE",
"256 320 LINE",
"256 384 LINE",
"256 448 LINE",
"192 448 LINE",
"128 448 LINE",
"64 448 LINE",
"64 384 LINE",
"64 320 LINE",
"64 256 LINE",
"64 192 LINE",
"64 128 LINE",
"64 64 LINE",
"64 0 LINE",
"128 0 LINE",
"192 0 LINE",
"256 0 LINE",
"256 64 LINE",
"256 128 LINE",
"256 192 LINE",
"320 192 LINE",
"384 192 LINE",
"384 128 LINE",
"384 64 LINE",
"384 0 LINE",
"448 0 LINE"
);
}
);
width = 512;
}
);
note = H;
unicode = 0048;
},
{
glyphname = I;
layers = (
{
layerId = "1701E5CE-665D-45EA-89A5-8373A0C97990";
paths = (
{
closed = 1;
nodes = (
"320 0 LINE",
"384 0 LINE",
"384 64 LINE",
"320 64 LINE",
"320 128 LINE",
"320 192 LINE",
"320 256 LINE",
"320 320 LINE",
"320 384 LINE",
"384 384 LINE",
"384 448 LINE",
"320 448 LINE",
"256 448 LINE",
"192 448 LINE",
"128 448 LINE",
"64 448 LINE",
"64 384 LINE",
"128 384 LINE",
"128 320 LINE",
"128 256 LINE",
"128 192 LINE",
"128 128 LINE",
"128 64 LINE",
"64 64 LINE",
"64 0 LINE",
"128 0 LINE",
"192 0 LINE",
"256 0 LINE",
"320 0 LINE"
);
}
);
width = 384;
}
);
note = I;
unicode = 0049;
},
{
glyphname = J;
layers = (
{
layerId = "1701E5CE-665D-45EA-89A5-8373A0C97990";
paths = (
{
closed = 1;
nodes = (
"384 0 LINE",
"448 0 LINE",
"448 64 LINE",
"512 64 LINE",
"512 128 LINE",
"512 192 LINE",
"512 256 LINE",
"512 320 LINE",
"512 384 LINE",
"512 448 LINE",
"448 448 LINE",
"384 448 LINE",
"320 448 LINE",
"256 448 LINE",
"256 384 LINE",
"320 384 LINE",
"384 384 LINE",
"384 320 LINE",
"384 256 LINE",
"384 192 LINE",
"384 128 LINE",
"384 64 LINE",
"320 64 LINE",
"256 64 LINE",
"256 128 LINE",
"256 192 LINE",
"192 192 LINE",
"128 192 LINE",
"64 192 LINE",
"64 128 LINE",
"64 64 LINE",
"128 64 LINE",
"128 0 LINE",
"192 0 LINE",
"256 0 LINE",
"320 0 LINE",
"384 0 LINE"
);
}
);
width = 512;
}
);
note = J;
unicode = 004A;
},
{
glyphname = K;
layers = (
{
layerId = "1701E5CE-665D-45EA-89A5-8373A0C97990";
paths = (
{
closed = 1;
nodes = (
"448 0 LINE",
"512 0 LINE",
"512 64 LINE",
"448 64 LINE",
"448 128 LINE",
"384 128 LINE",
"384 192 LINE",
"320 192 LINE",
"320 256 LINE",
"384 256 LINE",
"384 320 LINE",
"448 320 LINE",
"448 384 LINE",
"512 384 LINE",
"512 448 LINE",
"448 448 LINE",
"384 448 LINE",
"384 384 LINE",
"320 384 LINE",
"320 320 LINE",
"256 320 LINE",
"256 384 LINE",
"256 448 LINE",
"192 448 LINE",
"128 448 LINE",
"64 448 LINE",
"64 384 LINE",
"64 320 LINE",
"64 256 LINE",
"64 192 LINE",
"64 128 LINE",
"64 64 LINE",
"64 0 LINE",
"128 0 LINE",
"192 0 LINE",
"256 0 LINE",
"256 64 LINE",
"256 128 LINE",
"320 128 LINE",
"320 64 LINE",
"384 64 LINE",
"384 0 LINE",
"448 0 LINE"
);
}
);
width = 512;
}
);
note = K;
unicode = 004B;
},
{
glyphname = L;
layers = (
{
layerId = "1701E5CE-665D-45EA-89A5-8373A0C97990";
paths = (
{
closed = 1;
nodes = (
"384 64 LINE",
"320 64 LINE",
"256 64 LINE",
"256 128 LINE",
"256 192 LINE",
"256 256 LINE",
"256 320 LINE",
"256 384 LINE",
"256 448 LINE",
"192 448 LINE",
"128 448 LINE",
"64 448 LINE",
"64 384 LINE",
"64 320 LINE",
"64 256 LINE",
"64 192 LINE",
"64 128 LINE",
"64 64 LINE",
"64 0 LINE",
"128 0 LINE",
"192 0 LINE",
"256 0 LINE",
"320 0 LINE",
"384 0 LINE",
"448 0 LINE",
"448 64 LINE",
"384 64 LINE"
);
}
);
width = 448;
}
);
note = L;
unicode = 004C;
},
{
glyphname = M;
layers = (
{
layerId = "1701E5CE-665D-45EA-89A5-8373A0C97990";
paths = (
{
closed = 1;
nodes = (
"256 128 LINE",
"320 128 LINE",
"320 192 LINE",
"384 192 LINE",
"384 128 LINE",
"384 64 LINE",
"384 0 LINE",
"448 0 LINE",
"512 0 LINE",
"512 64 LINE",
"512 128 LINE",
"512 192 LINE",
"512 256 LINE",
"512 320 LINE",
"512 384 LINE",
"512 448 LINE",
"448 448 LINE",
"384 448 LINE",
"384 384 LINE",
"320 384 LINE",
"320 320 LINE",
"256 320 LINE",
"256 384 LINE",
"192 384 LINE",
"192 448 LINE",
"128 448 LINE",
"64 448 LINE",
"64 384 LINE",
"64 320 LINE",
"64 256 LINE",
"64 192 LINE",
"64 128 LINE",
"64 64 LINE",
"64 0 LINE",
"128 0 LINE",
"192 0 LINE",
"192 64 LINE",
"192 128 LINE",
"192 192 LINE",
"256 192 LINE",
"256 128 LINE"
);
}
);
width = 512;
}
);
note = M;
unicode = 004D;
},
{
glyphname = N;
layers = (
{
layerId = "1701E5CE-665D-45EA-89A5-8373A0C97990";
paths = (
{
closed = 1;
nodes = (
"448 0 LINE",
"512 0 LINE",
"512 64 LINE",
"512 128 LINE",
"512 192 LINE",
"512 256 LINE",
"512 320 LINE",
"512 384 LINE",
"512 448 LINE",
"448 448 LINE",
"384 448 LINE",
"384 384 LINE",
"384 320 LINE",
"384 256 LINE",
"320 256 LINE",
"320 320 LINE",
"256 320 LINE",
"256 384 LINE",
"192 384 LINE",
"192 448 LINE",
"128 448 LINE",
"64 448 LINE",
"64 384 LINE",
"64 320 LINE",
"64 256 LINE",
"64 192 LINE",
"64 128 LINE",
"64 64 LINE",
"64 0 LINE",
"128 0 LINE",
"192 0 LINE",
"256 0 LINE",
"256 64 LINE",
"256 128 LINE",
"256 192 LINE",
"320 192 LINE",
"320 128 LINE",
"384 128 LINE",
"384 64 LINE",
"384 0 LINE",
"448 0 LINE"
);
}
);
width = 512;
}
);
note = N;
unicode = 004E;
},
{
glyphname = O;
layers = (
{
layerId = "1701E5CE-665D-45EA-89A5-8373A0C97990";
paths = (
{
closed = 1;
nodes = (
"384 0 LINE",
"448 0 LINE",
"448 64 LINE",
"512 64 LINE",
"512 128 LINE",
"512 192 LINE",
"512 256 LINE",
"512 320 LINE",
"512 384 LINE",
"448 384 LINE",
"448 448 LINE",
"384 448 LINE",
"320 448 LINE",
"256 448 LINE",
"192 448 LINE",
"128 448 LINE",
"128 384 LINE",
"64 384 LINE",
"64 320 LINE",
"64 256 LINE",
"64 192 LINE",
"64 128 LINE",
"64 64 LINE",
"128 64 LINE",
"128 0 LINE",
"192 0 LINE",
"256 0 LINE",
"320 0 LINE",
"384 0 LINE"
);
},
{
closed = 1;
nodes = (
"320 64 LINE",
"256 64 LINE",
"256 128 LINE",
"256 192 LINE",
"256 256 LINE",
"256 320 LINE",
"256 384 LINE",
"320 384 LINE",
"384 384 LINE",
"384 320 LINE",
"384 256 LINE",
"384 192 LINE",
"384 128 LINE",
"384 64 LINE",
"320 64 LINE"
);
}
);
width = 512;
}
);
note = O;
unicode = 004F;
},
{
glyphname = Oslash;
layers = (
{
layerId = "1701E5CE-665D-45EA-89A5-8373A0C97990";
paths = (
{
closed = 1;
nodes = (
"128 -64 LINE",
"192 -64 LINE",
"192 0 LINE",
"256 0 LINE",
"320 0 LINE",
"384 0 LINE",
"448 0 LINE",
"448 64 LINE",
"512 64 LINE",
"512 128 LINE",
"512 192 LINE",
"512 256 LINE",
"512 320 LINE",
"512 384 LINE",
"448 384 LINE",
"448 448 LINE",
"448 512 LINE",
"384 512 LINE",
"384 448 LINE",
"320 448 LINE",
"256 448 LINE",
"192 448 LINE",
"128 448 LINE",
"128 384 LINE",
"64 384 LINE",
"64 320 LINE",
"64 256 LINE",
"64 192 LINE",
"64 128 LINE",
"64 64 LINE",
"128 64 LINE",
"128 0 LINE",
"128 -64 LINE"
);
},
{
closed = 1;
nodes = (
"320 64 LINE",
"256 64 LINE",
"256 128 LINE",
"192 128 LINE",
"192 192 LINE",
"192 256 LINE",
"192 320 LINE",
"192 384 LINE",
"256 384 LINE",
"320 384 LINE",
"320 320 LINE",
"256 320 LINE",
"256 256 LINE",
"256 192 LINE",
"256 128 LINE",
"320 128 LINE",
"320 192 LINE",
"320 256 LINE",
"320 320 LINE",
"384 320 LINE",
"384 256 LINE",
"384 192 LINE",
"384 128 LINE",
"384 64 LINE",
"320 64 LINE"
);
}
);
width = 512;
}
);
note = Oslash;
unicode = 00D8;
},
{
glyphname = P;
layers = (
{
layerId = "1701E5CE-665D-45EA-89A5-8373A0C97990";
paths = (
{
closed = 1;
nodes = (
"192 0 LINE",
"256 0 LINE",
"256 64 LINE",
"256 128 LINE",
"320 128 LINE",
"384 128 LINE",
"448 128 LINE",
"448 192 LINE",
"512 192 LINE",
"512 256 LINE",
"512 320 LINE",
"512 384 LINE",
"448 384 LINE",
"448 448 LINE",
"384 448 LINE",
"320 448 LINE",
"256 448 LINE",
"192 448 LINE",
"128 448 LINE",
"64 448 LINE",
"64 384 LINE",
"64 320 LINE",
"64 256 LINE",
"64 192 LINE",
"64 128 LINE",
"64 64 LINE",
"64 0 LINE",
"128 0 LINE",
"192 0 LINE"
);
},
{
closed = 1;
nodes = (
"320 192 LINE",
"256 192 LINE",
"256 256 LINE",
"256 320 LINE",
"256 384 LINE",
"320 384 LINE",
"384 384 LINE",
"384 320 LINE",
"384 256 LINE",
"384 192 LINE",
"320 192 LINE"
);
}
);
width = 512;
}
);
note = P;
unicode = 0050;
},
{
glyphname = Q;
layers = (
{
layerId = "1701E5CE-665D-45EA-89A5-8373A0C97990";
paths = (
{
closed = 1;
nodes = (
"448 -64 LINE",
"512 -64 LINE",
"512 0 LINE",
"448 0 LINE",
"448 -64 LINE"
);
},
{
closed = 1;
nodes = (
"448 0 LINE",
"448 64 LINE",
"512 64 LINE",
"512 128 LINE",
"512 192 LINE",
"512 256 LINE",
"512 320 LINE",
"512 384 LINE",
"448 384 LINE",
"448 448 LINE",
"384 448 LINE",
"320 448 LINE",
"256 448 LINE",
"192 448 LINE",
"128 448 LINE",
"128 384 LINE",
"64 384 LINE",
"64 320 LINE",
"64 256 LINE",
"64 192 LINE",
"64 128 LINE",
"64 64 LINE",
"128 64 LINE",
"128 0 LINE",
"192 0 LINE",
"256 0 LINE",
"320 0 LINE",
"384 0 LINE",
"448 0 LINE"
);
},
{
closed = 1;
nodes = (
"320 64 LINE",
"256 64 LINE",
"256 128 LINE",
"256 192 LINE",
"256 256 LINE",
"256 320 LINE",
"256 384 LINE",
"320 384 LINE",
"384 384 LINE",
"384 320 LINE",
"384 256 LINE",
"384 192 LINE",
"384 128 LINE",
"320 128 LINE",
"320 64 LINE"
);
}
);
width = 512;
}
);
note = Q;
unicode = 0051;
},
{
glyphname = R;
layers = (
{
layerId = "1701E5CE-665D-45EA-89A5-8373A0C97990";
paths = (
{
closed = 1;
nodes = (
"448 0 LINE",
"512 0 LINE",
"512 64 LINE",
"448 64 LINE",
"448 128 LINE",
"384 128 LINE",
"384 192 LINE",
"448 192 LINE",
"448 256 LINE",
"512 256 LINE",
"512 320 LINE",
"512 384 LINE",
"448 384 LINE",
"448 448 LINE",
"384 448 LINE",
"320 448 LINE",
"256 448 LINE",
"192 448 LINE",
"128 448 LINE",
"64 448 LINE",
"64 384 LINE",
"64 320 LINE",
"64 256 LINE",
"64 192 LINE",
"64 128 LINE",
"64 64 LINE",
"64 0 LINE",
"128 0 LINE",
"192 0 LINE",
"256 0 LINE",
"256 64 LINE",
"256 128 LINE",
"320 128 LINE",
"320 64 LINE",
"384 64 LINE",
"384 0 LINE",
"448 0 LINE"
);
},
{
closed = 1;
nodes = (
"320 192 LINE",
"256 192 LINE",
"256 256 LINE",
"256 320 LINE",
"256 384 LINE",
"320 384 LINE",
"384 384 LINE",
"384 320 LINE",
"384 256 LINE",
"320 256 LINE",
"320 192 LINE"
);
}
);
width = 512;
}
);
note = R;
unicode = 0052;
},
{
glyphname = S;
layers = (
{
layerId = "1701E5CE-665D-45EA-89A5-8373A0C97990";
paths = (
{
closed = 1;
nodes = (
"384 0 LINE",
"448 0 LINE",
"448 64 LINE",
"512 64 LINE",
"512 128 LINE",
"512 192 LINE",
"448 192 LINE",
"448 256 LINE",
"384 256 LINE",
"320 256 LINE",
"256 256 LINE",
"256 320 LINE",
"256 384 LINE",
"320 384 LINE",
"320 320 LINE",
"384 320 LINE",
"448 320 LINE",
"448 384 LINE",
"384 384 LINE",
"384 448 LINE",
"320 448 LINE",
"256 448 LINE",
"192 448 LINE",
"128 448 LINE",
"128 384 LINE",
"64 384 LINE",
"64 320 LINE",
"64 256 LINE",
"128 256 LINE",
"128 192 LINE",
"192 192 LINE",
"256 192 LINE",
"320 192 LINE",
"384 192 LINE",
"384 128 LINE",
"384 64 LINE",
"320 64 LINE",
"256 64 LINE",
"256 128 LINE",
"192 128 LINE",
"128 128 LINE",
"64 128 LINE",
"64 64 LINE",
"128 64 LINE",
"128 0 LINE",
"192 0 LINE",
"256 0 LINE",
"320 0 LINE",
"384 0 LINE"
);
}
);
width = 512;
}
);
note = S;
unicode = 0053;
},
{
glyphname = T;
layers = (
{
layerId = "1701E5CE-665D-45EA-89A5-8373A0C97990";
paths = (
{
closed = 1;
nodes = (
"320 0 LINE",
"384 0 LINE",
"384 64 LINE",
"384 128 LINE",
"384 192 LINE",
"384 256 LINE",
"384 320 LINE",
"384 384 LINE",
"448 384 LINE",
"512 384 LINE",
"512 448 LINE",
"448 448 LINE",
"384 448 LINE",
"320 448 LINE",
"256 448 LINE",
"192 448 LINE",
"128 448 LINE",
"64 448 LINE",
"64 384 LINE",
"128 384 LINE",
"192 384 LINE",
"192 320 LINE",
"192 256 LINE",
"192 192 LINE",
"192 128 LINE",
"192 64 LINE",
"192 0 LINE",
"256 0 LINE",
"320 0 LINE"
);
}
);
width = 512;
}
);
note = T;
unicode = 0054;
},
{
glyphname = U;
layers = (
{
layerId = "1701E5CE-665D-45EA-89A5-8373A0C97990";
paths = (
{
closed = 1;
nodes = (
"384 0 LINE",
"448 0 LINE",
"448 64 LINE",
"512 64 LINE",
"512 128 LINE",
"512 192 LINE",
"512 256 LINE",
"512 320 LINE",
"512 384 LINE",
"512 448 LINE",
"448 448 LINE",
"384 448 LINE",
"384 384 LINE",
"384 320 LINE",
"384 256 LINE",
"384 192 LINE",
"384 128 LINE",
"384 64 LINE",
"320 64 LINE",
"256 64 LINE",
"256 128 LINE",
"256 192 LINE",
"256 256 LINE",
"256 320 LINE",
"256 384 LINE",
"256 448 LINE",
"192 448 LINE",
"128 448 LINE",
"64 448 LINE",
"64 384 LINE",
"64 320 LINE",
"64 256 LINE",
"64 192 LINE",
"64 128 LINE",
"64 64 LINE",
"128 64 LINE",
"128 0 LINE",
"192 0 LINE",
"256 0 LINE",
"320 0 LINE",
"384 0 LINE"
);
}
);
width = 512;
}
);
note = U;
unicode = 0055;
},
{
glyphname = V;
layers = (
{
layerId = "1701E5CE-665D-45EA-89A5-8373A0C97990";
paths = (
{
closed = 1;
nodes = (
"256 0 LINE",
"320 0 LINE",
"320 64 LINE",
"384 64 LINE",
"384 128 LINE",
"448 128 LINE",
"448 192 LINE",
"512 192 LINE",
"512 256 LINE",
"512 320 LINE",
"512 384 LINE",
"512 448 LINE",
"448 448 LINE",
"384 448 LINE",
"384 384 LINE",
"384 320 LINE",
"384 256 LINE",
"384 192 LINE",
"320 192 LINE",
"320 128 LINE",
"256 128 LINE",
"256 192 LINE",
"256 256 LINE",
"256 320 LINE",
"256 384 LINE",
"256 448 LINE",
"192 448 LINE",
"128 448 LINE",
"64 448 LINE",
"64 384 LINE",
"64 320 LINE",
"64 256 LINE",
"64 192 LINE",
"128 192 LINE",
"128 128 LINE",
"192 128 LINE",
"192 64 LINE",
"256 64 LINE",
"256 0 LINE"
);
}
);
width = 512;
}
);
note = V;
unicode = 0056;
},
{
glyphname = W;
layers = (
{
layerId = "1701E5CE-665D-45EA-89A5-8373A0C97990";
paths = (
{
closed = 1;
nodes = (
"448 0 LINE",
"512 0 LINE",
"512 64 LINE",
"512 128 LINE",
"512 192 LINE",
"512 256 LINE",
"512 320 LINE",
"512 384 LINE",
"512 448 LINE",
"448 448 LINE",
"384 448 LINE",
"384 384 LINE",
"384 320 LINE",
"384 256 LINE",
"320 256 LINE",
"320 320 LINE",
"256 320 LINE",
"256 256 LINE",
"192 256 LINE",
"192 320 LINE",
"192 384 LINE",
"192 448 LINE",
"128 448 LINE",
"64 448 LINE",
"64 384 LINE",
"64 320 LINE",
"64 256 LINE",
"64 192 LINE",
"64 128 LINE",
"64 64 LINE",
"64 0 LINE",
"128 0 LINE",
"192 0 LINE",
"192 64 LINE",
"256 64 LINE",
"256 128 LINE",
"320 128 LINE",
"320 64 LINE",
"384 64 LINE",
"384 0 LINE",
"448 0 LINE"
);
}
);
width = 512;
}
);
note = W;
unicode = 0057;
},
{
glyphname = X;
layers = (
{
layerId = "1701E5CE-665D-45EA-89A5-8373A0C97990";
paths = (
{
closed = 1;
nodes = (
"448 0 LINE",
"512 0 LINE",
"512 64 LINE",
"512 128 LINE",
"448 128 LINE",
"448 192 LINE",
"384 192 LINE",
"384 256 LINE",
"448 256 LINE",
"448 320 LINE",
"512 320 LINE",
"512 384 LINE",
"512 448 LINE",
"448 448 LINE",
"384 448 LINE",
"384 384 LINE",
"320 384 LINE",
"320 320 LINE",
"256 320 LINE",
"256 384 LINE",
"192 384 LINE",
"192 448 LINE",
"128 448 LINE",
"64 448 LINE",
"64 384 LINE",
"64 320 LINE",
"128 320 LINE",
"128 256 LINE",
"192 256 LINE",
"192 192 LINE",
"128 192 LINE",
"128 128 LINE",
"64 128 LINE",
"64 64 LINE",
"64 0 LINE",
"128 0 LINE",
"192 0 LINE",
"192 64 LINE",
"256 64 LINE",
"256 128 LINE",
"320 128 LINE",
"320 64 LINE",
"384 64 LINE",
"384 0 LINE",
"448 0 LINE"
);
}
);
width = 512;
}
);
note = X;
unicode = 0058;
},
{
glyphname = Y;
layers = (
{
layerId = "1701E5CE-665D-45EA-89A5-8373A0C97990";
paths = (
{
closed = 1;
nodes = (
"320 0 LINE",
"384 0 LINE",
"384 64 LINE",
"384 128 LINE",
"384 192 LINE",
"448 192 LINE",
"448 256 LINE",
"512 256 LINE",
"512 320 LINE",
"512 384 LINE",
"512 448 LINE",
"448 448 LINE",
"384 448 LINE",
"384 384 LINE",
"384 320 LINE",
"384 256 LINE",
"320 256 LINE",
"256 256 LINE",
"256 320 LINE",
"256 384 LINE",
"256 448 LINE",
"192 448 LINE",
"128 448 LINE",
"64 448 LINE",
"64 384 LINE",
"64 320 LINE",
"64 256 LINE",
"128 256 LINE",
"128 192 LINE",
"192 192 LINE",
"256 192 LINE",
"256 128 LINE",
"256 64 LINE",
"256 0 LINE",
"320 0 LINE"
);
}
);
width = 512;
}
);
note = Y;
unicode = 0059;
},
{
glyphname = Z;
layers = (
{
layerId = "1701E5CE-665D-45EA-89A5-8373A0C97990";
paths = (
{
closed = 1;
nodes = (
"384 0 LINE",
"448 0 LINE",
"448 64 LINE",
"512 64 LINE",
"512 128 LINE",
"448 128 LINE",
"384 128 LINE",
"320 128 LINE",
"256 128 LINE",
"256 192 LINE",
"320 192 LINE",
"320 256 LINE",
"384 256 LINE",
"384 320 LINE",
"448 320 LINE",
"512 320 LINE",
"512 384 LINE",
"512 448 LINE",
"448 448 LINE",
"384 448 LINE",
"320 448 LINE",
"256 448 LINE",
"192 448 LINE",
"128 448 LINE",
"128 384 LINE",
"64 384 LINE",
"64 320 LINE",
"128 320 LINE",
"192 320 LINE",
"256 320 LINE",
"256 256 LINE",
"192 256 LINE",
"192 192 LINE",
"128 192 LINE",
"128 128 LINE",
"64 128 LINE",
"64 64 LINE",
"64 0 LINE",
"128 0 LINE",
"192 0 LINE",
"256 0 LINE",
"320 0 LINE",
"384 0 LINE"
);
}
);
width = 512;
}
);
note = Z;
unicode = 005A;
},
{
glyphname = a;
layers = (
{
layerId = "1701E5CE-665D-45EA-89A5-8373A0C97990";
paths = (
{
closed = 1;
nodes = (
"384 0 LINE",
"448 0 LINE",
"448 64 LINE",
"448 128 LINE",
"448 192 LINE",
"448 256 LINE",
"384 256 LINE",
"384 320 LINE",
"320 320 LINE",
"256 320 LINE",
"192 320 LINE",
"128 320 LINE",
"128 256 LINE",
"192 256 LINE",
"256 256 LINE",
"320 256 LINE",
"320 192 LINE",
"256 192 LINE",
"192 192 LINE",
"128 192 LINE",
"128 128 LINE",
"64 128 LINE",
"64 64 LINE",
"128 64 LINE",
"128 0 LINE",
"192 0 LINE",
"256 0 LINE",
"320 0 LINE",
"384 0 LINE"
);
},
{
closed = 1;
nodes = (
"256 64 LINE",
"192 64 LINE",
"192 128 LINE",
"256 128 LINE",
"320 128 LINE",
"320 64 LINE",
"256 64 LINE"
);
}
);
width = 448;
}
);
note = a;
unicode = 0061;
},
{
glyphname = b;
layers = (
{
layerId = "1701E5CE-665D-45EA-89A5-8373A0C97990";
paths = (
{
closed = 1;
nodes = (
"320 0 LINE",
"384 0 LINE",
"384 64 LINE",
"448 64 LINE",
"448 128 LINE",
"448 192 LINE",
"448 256 LINE",
"384 256 LINE",
"384 320 LINE",
"320 320 LINE",
"256 320 LINE",
"192 320 LINE",
"192 384 LINE",
"192 448 LINE",
"128 448 LINE",
"64 448 LINE",
"64 384 LINE",
"64 320 LINE",
"64 256 LINE",
"64 192 LINE",
"64 128 LINE",
"64 64 LINE",
"64 0 LINE",
"128 0 LINE",
"192 0 LINE",
"256 0 LINE",
"320 0 LINE"
);
},
{
closed = 1;
nodes = (
"256 64 LINE",
"192 64 LINE",
"192 128 LINE",
"192 192 LINE",
"192 256 LINE",
"256 256 LINE",
"320 256 LINE",
"320 192 LINE",
"320 128 LINE",
"320 64 LINE",
"256 64 LINE"
);
}
);
width = 448;
}
);
note = b;
unicode = 0062;
},
{
glyphname = c;
layers = (
{
layerId = "1701E5CE-665D-45EA-89A5-8373A0C97990";
paths = (
{
closed = 1;
nodes = (
"320 64 LINE",
"256 64 LINE",
"192 64 LINE",
"192 128 LINE",
"192 192 LINE",
"192 256 LINE",
"256 256 LINE",
"320 256 LINE",
"384 256 LINE",
"384 320 LINE",
"320 320 LINE",
"256 320 LINE",
"192 320 LINE",
"128 320 LINE",
"128 256 LINE",
"64 256 LINE",
"64 192 LINE",
"64 128 LINE",
"64 64 LINE",
"128 64 LINE",
"128 0 LINE",
"192 0 LINE",
"256 0 LINE",
"320 0 LINE",
"384 0 LINE",
"384 64 LINE",
"320 64 LINE"
);
}
);
width = 384;
}
);
note = c;
unicode = 0063;
},
{
glyphname = d;
layers = (
{
layerId = "1701E5CE-665D-45EA-89A5-8373A0C97990";
paths = (
{
closed = 1;
nodes = (
"384 0 LINE",
"448 0 LINE",
"448 64 LINE",
"448 128 LINE",
"448 192 LINE",
"448 256 LINE",
"448 320 LINE",
"448 384 LINE",
"448 448 LINE",
"384 448 LINE",
"320 448 LINE",
"320 384 LINE",
"320 320 LINE",
"256 320 LINE",
"192 320 LINE",
"128 320 LINE",
"128 256 LINE",
"64 256 LINE",
"64 192 LINE",
"64 128 LINE",
"64 64 LINE",
"128 64 LINE",
"128 0 LINE",
"192 0 LINE",
"256 0 LINE",
"320 0 LINE",
"384 0 LINE"
);
},
{
closed = 1;
nodes = (
"256 64 LINE",
"192 64 LINE",
"192 128 LINE",
"192 192 LINE",
"192 256 LINE",
"256 256 LINE",
"320 256 LINE",
"320 192 LINE",
"320 128 LINE",
"320 64 LINE",
"256 64 LINE"
);
}
);
width = 448;
}
);
note = d;
unicode = 0064;
},
{
glyphname = e;
layers = (
{
layerId = "1701E5CE-665D-45EA-89A5-8373A0C97990";
paths = (
{
closed = 1;
nodes = (
"320 64 LINE",
"256 64 LINE",
"192 64 LINE",
"192 128 LINE",
"256 128 LINE",
"320 128 LINE",
"384 128 LINE",
"448 128 LINE",
"448 192 LINE",
"448 256 LINE",
"384 256 LINE",
"384 320 LINE",
"320 320 LINE",
"256 320 LINE",
"192 320 LINE",
"128 320 LINE",
"128 256 LINE",
"64 256 LINE",
"64 192 LINE",
"64 128 LINE",
"64 64 LINE",
"128 64 LINE",
"128 0 LINE",
"192 0 LINE",
"256 0 LINE",
"320 0 LINE",
"384 0 LINE",
"384 64 LINE",
"320 64 LINE"
);
},
{
closed = 1;
nodes = (
"256 192 LINE",
"192 192 LINE",
"192 256 LINE",
"256 256 LINE",
"320 256 LINE",
"320 192 LINE",
"256 192 LINE"
);
}
);
width = 448;
}
);
note = e;
unicode = 0065;
},
{
glyphname = f;
layers = (
{
layerId = "1701E5CE-665D-45EA-89A5-8373A0C97990";
paths = (
{
closed = 1;
nodes = (
"128 0 LINE",
"192 0 LINE",
"192 64 LINE",
"192 128 LINE",
"192 192 LINE",
"256 192 LINE",
"256 256 LINE",
"192 256 LINE",
"192 320 LINE",
"192 384 LINE",
"256 384 LINE",
"320 384 LINE",
"320 448 LINE",
"256 448 LINE",
"192 448 LINE",
"128 448 LINE",
"128 384 LINE",
"64 384 LINE",
"64 320 LINE",
"64 256 LINE",
"64 192 LINE",
"64 128 LINE",
"64 64 LINE",
"64 0 LINE",
"128 0 LINE"
);
}
);
width = 320;
}
);
note = f;
unicode = 0066;
},
{
glyphname = g;
layers = (
{
layerId = "1701E5CE-665D-45EA-89A5-8373A0C97990";
paths = (
{
closed = 1;
nodes = (
"320 -128 LINE",
"384 -128 LINE",
"384 -64 LINE",
"448 -64 LINE",
"448 0 LINE",
"448 64 LINE",
"448 128 LINE",
"448 192 LINE",
"448 256 LINE",
"384 256 LINE",
"384 320 LINE",
"320 320 LINE",
"256 320 LINE",
"192 320 LINE",
"128 320 LINE",
"128 256 LINE",
"64 256 LINE",
"64 192 LINE",
"64 128 LINE",
"64 64 LINE",
"128 64 LINE",
"128 0 LINE",
"192 0 LINE",
"256 0 LINE",
"320 0 LINE",
"320 -64 LINE",
"256 -64 LINE",
"192 -64 LINE",
"128 -64 LINE",
"128 -128 LINE",
"192 -128 LINE",
"256 -128 LINE",
"320 -128 LINE"
);
},
{
closed = 1;
nodes = (
"256 64 LINE",
"192 64 LINE",
"192 128 LINE",
"192 192 LINE",
"192 256 LINE",
"256 256 LINE",
"320 256 LINE",
"320 192 LINE",
"320 128 LINE",
"320 64 LINE",
"256 64 LINE"
);
}
);
width = 448;
}
);
note = g;
unicode = 0067;
},
{
glyphname = h;
layers = (
{
layerId = "1701E5CE-665D-45EA-89A5-8373A0C97990";
paths = (
{
closed = 1;
nodes = (
"384 0 LINE",
"448 0 LINE",
"448 64 LINE",
"448 128 LINE",
"448 192 LINE",
"448 256 LINE",
"384 256 LINE",
"384 320 LINE",
"320 320 LINE",
"256 320 LINE",
"192 320 LINE",
"192 384 LINE",
"192 448 LINE",
"128 448 LINE",
"64 448 LINE",
"64 384 LINE",
"64 320 LINE",
"64 256 LINE",
"64 192 LINE",
"64 128 LINE",
"64 64 LINE",
"64 0 LINE",
"128 0 LINE",
"192 0 LINE",
"192 64 LINE",
"192 128 LINE",
"192 192 LINE",
"192 256 LINE",
"256 256 LINE",
"320 256 LINE",
"320 192 LINE",
"320 128 LINE",
"320 64 LINE",
"320 0 LINE",
"384 0 LINE"
);
}
);
width = 448;
}
);
note = h;
unicode = 0068;
},
{
glyphname = i;
layers = (
{
layerId = "1701E5CE-665D-45EA-89A5-8373A0C97990";
paths = (
{
closed = 1;
nodes = (
"128 0 LINE",
"192 0 LINE",
"192 64 LINE",
"192 128 LINE",
"192 192 LINE",
"192 256 LINE",
"192 320 LINE",
"128 320 LINE",
"64 320 LINE",
"64 256 LINE",
"64 192 LINE",
"64 128 LINE",
"64 64 LINE",
"64 0 LINE",
"128 0 LINE"
);
},
{
closed = 1;
nodes = (
"128 448 LINE",
"64 448 LINE",
"64 384 LINE",
"128 384 LINE",
"192 384 LINE",
"192 448 LINE",
"128 448 LINE"
);
}
);
width = 192;
}
);
note = i;
unicode = 0069;
},
{
glyphname = j;
layers = (
{
layerId = "1701E5CE-665D-45EA-89A5-8373A0C97990";
paths = (
{
closed = 1;
nodes = (
"192 -64 LINE",
"256 -64 LINE",
"256 0 LINE",
"320 0 LINE",
"320 64 LINE",
"320 128 LINE",
"320 192 LINE",
"320 256 LINE",
"320 320 LINE",
"256 320 LINE",
"192 320 LINE",
"192 256 LINE",
"192 192 LINE",
"192 128 LINE",
"192 64 LINE",
"192 0 LINE",
"128 0 LINE",
"64 0 LINE",
"64 -64 LINE",
"128 -64 LINE",
"192 -64 LINE"
);
},
{
closed = 1;
nodes = (
"256 448 LINE",
"192 448 LINE",
"192 384 LINE",
"256 384 LINE",
"320 384 LINE",
"320 448 LINE",
"256 448 LINE"
);
}
);
width = 320;
}
);
note = j;
unicode = 006A;
},
{
glyphname = k;
layers = (
{
layerId = "1701E5CE-665D-45EA-89A5-8373A0C97990";
paths = (
{
closed = 1;
nodes = (
"384 0 LINE",
"448 0 LINE",
"448 64 LINE",
"384 64 LINE",
"384 128 LINE",
"320 128 LINE",
"320 192 LINE",
"384 192 LINE",
"384 256 LINE",
"448 256 LINE",
"448 320 LINE",
"384 320 LINE",
"320 320 LINE",
"320 256 LINE",
"256 256 LINE",
"256 192 LINE",
"192 192 LINE",
"192 256 LINE",
"192 320 LINE",
"192 384 LINE",
"192 448 LINE",
"128 448 LINE",
"64 448 LINE",
"64 384 LINE",
"64 320 LINE",
"64 256 LINE",
"64 192 LINE",
"64 128 LINE",
"64 64 LINE",
"64 0 LINE",
"128 0 LINE",
"192 0 LINE",
"192 64 LINE",
"192 128 LINE",
"256 128 LINE",
"256 64 LINE",
"320 64 LINE",
"320 0 LINE",
"384 0 LINE"
);
}
);
width = 448;
}
);
note = k;
unicode = 006B;
},
{
glyphname = l;
layers = (
{
layerId = "1701E5CE-665D-45EA-89A5-8373A0C97990";
paths = (
{
closed = 1;
nodes = (
"192 0 LINE",
"256 0 LINE",
"256 64 LINE",
"192 64 LINE",
"192 128 LINE",
"192 192 LINE",
"192 256 LINE",
"192 320 LINE",
"192 384 LINE",
"192 448 LINE",
"128 448 LINE",
"64 448 LINE",
"64 384 LINE",
"64 320 LINE",
"64 256 LINE",
"64 192 LINE",
"64 128 LINE",
"64 64 LINE",
"128 64 LINE",
"128 0 LINE",
"192 0 LINE"
);
}
);
width = 256;
}
);
note = l;
unicode = 006C;
},
{
glyphname = m;
layers = (
{
layerId = "1701E5CE-665D-45EA-89A5-8373A0C97990";
paths = (
{
closed = 1;
nodes = (
"256 64 LINE",
"320 64 LINE",
"320 128 LINE",
"320 192 LINE",
"384 192 LINE",
"384 128 LINE",
"384 64 LINE",
"384 0 LINE",
"448 0 LINE",
"512 0 LINE",
"512 64 LINE",
"512 128 LINE",
"512 192 LINE",
"512 256 LINE",
"448 256 LINE",
"448 320 LINE",
"384 320 LINE",
"320 320 LINE",
"320 256 LINE",
"256 256 LINE",
"256 320 LINE",
"192 320 LINE",
"128 320 LINE",
"64 320 LINE",
"64 256 LINE",
"64 192 LINE",
"64 128 LINE",
"64 64 LINE",
"64 0 LINE",
"128 0 LINE",
"192 0 LINE",
"192 64 LINE",
"192 128 LINE",
"192 192 LINE",
"256 192 LINE",
"256 128 LINE",
"256 64 LINE"
);
}
);
width = 512;
}
);
note = m;
unicode = 006D;
},
{
glyphname = n;
layers = (
{
layerId = "1701E5CE-665D-45EA-89A5-8373A0C97990";
paths = (
{
closed = 1;
nodes = (
"384 0 LINE",
"448 0 LINE",
"448 64 LINE",
"448 128 LINE",
"448 192 LINE",
"448 256 LINE",
"384 256 LINE",
"384 320 LINE",
"320 320 LINE",
"256 320 LINE",
"192 320 LINE",
"128 320 LINE",
"64 320 LINE",
"64 256 LINE",
"64 192 LINE",
"64 128 LINE",
"64 64 LINE",
"64 0 LINE",
"128 0 LINE",
"192 0 LINE",
"192 64 LINE",
"192 128 LINE",
"192 192 LINE",
"192 256 LINE",
"256 256 LINE",
"320 256 LINE",
"320 192 LINE",
"320 128 LINE",
"320 64 LINE",
"320 0 LINE",
"384 0 LINE"
);
}
);
width = 448;
}
);
note = n;
unicode = 006E;
},
{
glyphname = o;
layers = (
{
layerId = "1701E5CE-665D-45EA-89A5-8373A0C97990";
paths = (
{
closed = 1;
nodes = (
"320 0 LINE",
"384 0 LINE",
"384 64 LINE",
"448 64 LINE",
"448 128 LINE",
"448 192 LINE",
"448 256 LINE",
"384 256 LINE",
"384 320 LINE",
"320 320 LINE",
"256 320 LINE",
"192 320 LINE",
"128 320 LINE",
"128 256 LINE",
"64 256 LINE",
"64 192 LINE",
"64 128 LINE",
"64 64 LINE",
"128 64 LINE",
"128 0 LINE",
"192 0 LINE",
"256 0 LINE",
"320 0 LINE"
);
},
{
closed = 1;
nodes = (
"256 64 LINE",
"192 64 LINE",
"192 128 LINE",
"192 192 LINE",
"192 256 LINE",
"256 256 LINE",
"320 256 LINE",
"320 192 LINE",
"320 128 LINE",
"320 64 LINE",
"256 64 LINE"
);
}
);
width = 448;
}
);
note = o;
unicode = 006F;
},
{
glyphname = oslash;
layers = (
{
layerId = "1701E5CE-665D-45EA-89A5-8373A0C97990";
paths = (
{
closed = 1;
nodes = (
"128 -64 LINE",
"192 -64 LINE",
"192 0 LINE",
"256 0 LINE",
"320 0 LINE",
"384 0 LINE",
"448 0 LINE",
"448 64 LINE",
"512 64 LINE",
"512 128 LINE",
"512 192 LINE",
"512 256 LINE",
"448 256 LINE",
"448 320 LINE",
"448 384 LINE",
"384 384 LINE",
"384 320 LINE",
"320 320 LINE",
"256 320 LINE",
"192 320 LINE",
"128 320 LINE",
"128 256 LINE",
"64 256 LINE",
"64 192 LINE",
"64 128 LINE",
"64 64 LINE",
"128 64 LINE",
"128 0 LINE",
"128 -64 LINE"
);
},
{
closed = 1;
nodes = (
"320 64 LINE",
"256 64 LINE",
"256 128 LINE",
"192 128 LINE",
"192 192 LINE",
"192 256 LINE",
"256 256 LINE",
"320 256 LINE",
"320 192 LINE",
"256 192 LINE",
"256 128 LINE",
"320 128 LINE",
"320 192 LINE",
"384 192 LINE",
"384 128 LINE",
"384 64 LINE",
"320 64 LINE"
);
}
);
width = 512;
}
);
note = oslash;
unicode = 00F8;
},
{
glyphname = p;
layers = (
{
layerId = "1701E5CE-665D-45EA-89A5-8373A0C97990";
paths = (
{
closed = 1;
nodes = (
"128 -128 LINE",
"192 -128 LINE",
"192 -64 LINE",
"192 0 LINE",
"256 0 LINE",
"320 0 LINE",
"384 0 LINE",
"384 64 LINE",
"448 64 LINE",
"448 128 LINE",
"448 192 LINE",
"448 256 LINE",
"384 256 LINE",
"384 320 LINE",
"320 320 LINE",
"256 320 LINE",
"192 320 LINE",
"128 320 LINE",
"64 320 LINE",
"64 256 LINE",
"64 192 LINE",
"64 128 LINE",
"64 64 LINE",
"64 0 LINE",
"64 -64 LINE",
"64 -128 LINE",
"128 -128 LINE"
);
},
{
closed = 1;
nodes = (
"256 64 LINE",
"192 64 LINE",
"192 128 LINE",
"192 192 LINE",
"192 256 LINE",
"256 256 LINE",
"320 256 LINE",
"320 192 LINE",
"320 128 LINE",
"320 64 LINE",
"256 64 LINE"
);
}
);
width = 448;
}
);
note = p;
unicode = 0070;
},
{
glyphname = q;
layers = (
{
layerId = "1701E5CE-665D-45EA-89A5-8373A0C97990";
paths = (
{
closed = 1;
nodes = (
"384 -128 LINE",
"448 -128 LINE",
"448 -64 LINE",
"448 0 LINE",
"448 64 LINE",
"448 128 LINE",
"448 192 LINE",
"448 256 LINE",
"448 320 LINE",
"384 320 LINE",
"320 320 LINE",
"256 320 LINE",
"192 320 LINE",
"128 320 LINE",
"128 256 LINE",
"64 256 LINE",
"64 192 LINE",
"64 128 LINE",
"64 64 LINE",
"128 64 LINE",
"128 0 LINE",
"192 0 LINE",
"256 0 LINE",
"320 0 LINE",
"320 -64 LINE",
"320 -128 LINE",
"384 -128 LINE"
);
},
{
closed = 1;
nodes = (
"256 64 LINE",
"192 64 LINE",
"192 128 LINE",
"192 192 LINE",
"192 256 LINE",
"256 256 LINE",
"320 256 LINE",
"320 192 LINE",
"320 128 LINE",
"320 64 LINE",
"256 64 LINE"
);
}
);
width = 448;
}
);
note = q;
unicode = 0071;
},
{
glyphname = r;
layers = (
{
layerId = "1701E5CE-665D-45EA-89A5-8373A0C97990";
paths = (
{
closed = 1;
nodes = (
"128 0 LINE",
"192 0 LINE",
"192 64 LINE",
"192 128 LINE",
"192 192 LINE",
"256 192 LINE",
"320 192 LINE",
"320 256 LINE",
"384 256 LINE",
"384 320 LINE",
"320 320 LINE",
"256 320 LINE",
"256 256 LINE",
"192 256 LINE",
"192 320 LINE",
"128 320 LINE",
"64 320 LINE",
"64 256 LINE",
"64 192 LINE",
"64 128 LINE",
"64 64 LINE",
"64 0 LINE",
"128 0 LINE"
);
}
);
width = 384;
}
);
note = r;
unicode = 0072;
},
{
glyphname = s;
layers = (
{
layerId = "1701E5CE-665D-45EA-89A5-8373A0C97990";
paths = (
{
closed = 1;
nodes = (
"320 0 LINE",
"384 0 LINE",
"384 64 LINE",
"448 64 LINE",
"448 128 LINE",
"384 128 LINE",
"384 192 LINE",
"320 192 LINE",
"256 192 LINE",
"192 192 LINE",
"192 256 LINE",
"256 256 LINE",
"320 256 LINE",
"320 320 LINE",
"256 320 LINE",
"192 320 LINE",
"128 320 LINE",
"128 256 LINE",
"64 256 LINE",
"64 192 LINE",
"64 128 LINE",
"128 128 LINE",
"192 128 LINE",
"256 128 LINE",
"320 128 LINE",
"320 64 LINE",
"256 64 LINE",
"192 64 LINE",
"128 64 LINE",
"128 0 LINE",
"192 0 LINE",
"256 0 LINE",
"320 0 LINE"
);
}
);
width = 448;
}
);
note = s;
unicode = 0073;
},
{
glyphname = t;
layers = (
{
layerId = "1701E5CE-665D-45EA-89A5-8373A0C97990";
paths = (
{
closed = 1;
nodes = (
"256 0 LINE",
"320 0 LINE",
"320 64 LINE",
"256 64 LINE",
"256 128 LINE",
"256 192 LINE",
"256 256 LINE",
"320 256 LINE",
"320 320 LINE",
"256 320 LINE",
"256 384 LINE",
"256 448 LINE",
"192 448 LINE",
"128 448 LINE",
"128 384 LINE",
"128 320 LINE",
"64 320 LINE",
"64 256 LINE",
"128 256 LINE",
"128 192 LINE",
"128 128 LINE",
"128 64 LINE",
"192 64 LINE",
"192 0 LINE",
"256 0 LINE"
);
}
);
width = 320;
}
);
note = t;
unicode = 0074;
},
{
glyphname = u;
layers = (
{
layerId = "1701E5CE-665D-45EA-89A5-8373A0C97990";
paths = (
{
closed = 1;
nodes = (
"320 0 LINE",
"384 0 LINE",
"384 64 LINE",
"448 64 LINE",
"448 128 LINE",
"448 192 LINE",
"448 256 LINE",
"448 320 LINE",
"384 320 LINE",
"320 320 LINE",
"320 256 LINE",
"320 192 LINE",
"320 128 LINE",
"320 64 LINE",
"256 64 LINE",
"192 64 LINE",
"192 128 LINE",
"192 192 LINE",
"192 256 LINE",
"192 320 LINE",
"128 320 LINE",
"64 320 LINE",
"64 256 LINE",
"64 192 LINE",
"64 128 LINE",
"64 64 LINE",
"128 64 LINE",
"128 0 LINE",
"192 0 LINE",
"256 0 LINE",
"320 0 LINE"
);
}
);
width = 448;
}
);
note = u;
unicode = 0075;
},
{
glyphname = v;
layers = (
{
layerId = "1701E5CE-665D-45EA-89A5-8373A0C97990";
paths = (
{
closed = 1;
nodes = (
"192 0 LINE",
"256 0 LINE",
"256 64 LINE",
"320 64 LINE",
"320 128 LINE",
"384 128 LINE",
"384 192 LINE",
"448 192 LINE",
"448 256 LINE",
"448 320 LINE",
"384 320 LINE",
"320 320 LINE",
"320 256 LINE",
"320 192 LINE",
"256 192 LINE",
"256 128 LINE",
"192 128 LINE",
"192 192 LINE",
"192 256 LINE",
"192 320 LINE",
"128 320 LINE",
"64 320 LINE",
"64 256 LINE",
"64 192 LINE",
"64 128 LINE",
"128 128 LINE",
"128 64 LINE",
"192 64 LINE",
"192 0 LINE"
);
}
);
width = 448;
}
);
note = v;
unicode = 0076;
},
{
glyphname = w;
layers = (
{
layerId = "1701E5CE-665D-45EA-89A5-8373A0C97990";
paths = (
{
closed = 1;
nodes = (
"384 0 LINE",
"448 0 LINE",
"448 64 LINE",
"512 64 LINE",
"512 128 LINE",
"512 192 LINE",
"512 256 LINE",
"512 320 LINE",
"448 320 LINE",
"384 320 LINE",
"384 256 LINE",
"384 192 LINE",
"320 192 LINE",
"320 256 LINE",
"256 256 LINE",
"256 192 LINE",
"192 192 LINE",
"192 256 LINE",
"192 320 LINE",
"128 320 LINE",
"64 320 LINE",
"64 256 LINE",
"64 192 LINE",
"64 128 LINE",
"64 64 LINE",
"128 64 LINE",
"128 0 LINE",
"192 0 LINE",
"192 64 LINE",
"256 64 LINE",
"256 128 LINE",
"320 128 LINE",
"320 64 LINE",
"384 64 LINE",
"384 0 LINE"
);
}
);
width = 512;
}
);
note = w;
unicode = 0077;
},
{
glyphname = x;
layers = (
{
layerId = "1701E5CE-665D-45EA-89A5-8373A0C97990";
paths = (
{
closed = 1;
nodes = (
"448 0 LINE",
"512 0 LINE",
"512 64 LINE",
"448 64 LINE",
"448 128 LINE",
"384 128 LINE",
"384 192 LINE",
"448 192 LINE",
"448 256 LINE",
"512 256 LINE",
"512 320 LINE",
"448 320 LINE",
"384 320 LINE",
"384 256 LINE",
"320 256 LINE",
"320 192 LINE",
"256 192 LINE",
"256 256 LINE",
"192 256 LINE",
"192 320 LINE",
"128 320 LINE",
"64 320 LINE",
"64 256 LINE",
"128 256 LINE",
"128 192 LINE",
"192 192 LINE",
"192 128 LINE",
"128 128 LINE",
"128 64 LINE",
"64 64 LINE",
"64 0 LINE",
"128 0 LINE",
"192 0 LINE",
"192 64 LINE",
"256 64 LINE",
"256 128 LINE",
"320 128 LINE",
"320 64 LINE",
"384 64 LINE",
"384 0 LINE",
"448 0 LINE"
);
}
);
width = 512;
}
);
note = x;
unicode = 0078;
},
{
glyphname = y;
layers = (
{
layerId = "1701E5CE-665D-45EA-89A5-8373A0C97990";
paths = (
{
closed = 1;
nodes = (
"320 -128 LINE",
"384 -128 LINE",
"384 -64 LINE",
"448 -64 LINE",
"448 0 LINE",
"448 64 LINE",
"448 128 LINE",
"448 192 LINE",
"448 256 LINE",
"448 320 LINE",
"384 320 LINE",
"320 320 LINE",
"320 256 LINE",
"320 192 LINE",
"320 128 LINE",
"320 64 LINE",
"256 64 LINE",
"192 64 LINE",
"192 128 LINE",
"192 192 LINE",
"192 256 LINE",
"192 320 LINE",
"128 320 LINE",
"64 320 LINE",
"64 256 LINE",
"64 192 LINE",
"64 128 LINE",
"64 64 LINE",
"128 64 LINE",
"128 0 LINE",
"192 0 LINE",
"256 0 LINE",
"320 0 LINE",
"320 -64 LINE",
"256 -64 LINE",
"192 -64 LINE",
"128 -64 LINE",
"128 -128 LINE",
"192 -128 LINE",
"256 -128 LINE",
"320 -128 LINE"
);
}
);
width = 448;
}
);
note = y;
unicode = 0079;
},
{
glyphname = z;
layers = (
{
layerId = "1701E5CE-665D-45EA-89A5-8373A0C97990";
paths = (
{
closed = 1;
nodes = (
"384 64 LINE",
"320 64 LINE",
"256 64 LINE",
"256 128 LINE",
"320 128 LINE",
"320 192 LINE",
"384 192 LINE",
"384 256 LINE",
"448 256 LINE",
"448 320 LINE",
"384 320 LINE",
"320 320 LINE",
"256 320 LINE",
"192 320 LINE",
"128 320 LINE",
"64 320 LINE",
"64 256 LINE",
"128 256 LINE",
"192 256 LINE",
"256 256 LINE",
"256 192 LINE",
"192 192 LINE",
"192 128 LINE",
"128 128 LINE",
"128 64 LINE",
"64 64 LINE",
"64 0 LINE",
"128 0 LINE",
"192 0 LINE",
"256 0 LINE",
"320 0 LINE",
"384 0 LINE",
"448 0 LINE",
"448 64 LINE",
"384 64 LINE"
);
}
);
width = 448;
}
);
note = z;
unicode = 007A;
},
{
glyphname = zero;
layers = (
{
layerId = "1701E5CE-665D-45EA-89A5-8373A0C97990";
paths = (
{
closed = 1;
nodes = (
"384 0 LINE",
"448 0 LINE",
"448 64 LINE",
"512 64 LINE",
"512 128 LINE",
"512 192 LINE",
"512 256 LINE",
"512 320 LINE",
"512 384 LINE",
"448 384 LINE",
"448 448 LINE",
"384 448 LINE",
"320 448 LINE",
"256 448 LINE",
"192 448 LINE",
"128 448 LINE",
"128 384 LINE",
"64 384 LINE",
"64 320 LINE",
"64 256 LINE",
"64 192 LINE",
"64 128 LINE",
"64 64 LINE",
"128 64 LINE",
"128 0 LINE",
"192 0 LINE",
"256 0 LINE",
"320 0 LINE",
"384 0 LINE"
);
},
{
closed = 1;
nodes = (
"256 64 LINE",
"192 64 LINE",
"192 128 LINE",
"192 192 LINE",
"192 256 LINE",
"192 320 LINE",
"192 384 LINE",
"256 384 LINE",
"320 384 LINE",
"320 320 LINE",
"320 256 LINE",
"320 192 LINE",
"320 128 LINE",
"320 64 LINE",
"256 64 LINE"
);
}
);
width = 512;
}
);
note = zero;
unicode = 0030;
},
{
glyphname = one;
layers = (
{
layerId = "1701E5CE-665D-45EA-89A5-8373A0C97990";
paths = (
{
closed = 1;
nodes = (
"320 0 LINE",
"384 0 LINE",
"384 64 LINE",
"320 64 LINE",
"320 128 LINE",
"320 192 LINE",
"320 256 LINE",
"320 320 LINE",
"320 384 LINE",
"320 448 LINE",
"256 448 LINE",
"192 448 LINE",
"128 448 LINE",
"128 384 LINE",
"64 384 LINE",
"64 320 LINE",
"128 320 LINE",
"128 256 LINE",
"128 192 LINE",
"128 128 LINE",
"128 64 LINE",
"64 64 LINE",
"64 0 LINE",
"128 0 LINE",
"192 0 LINE",
"256 0 LINE",
"320 0 LINE"
);
}
);
width = 384;
}
);
note = one;
unicode = 0031;
},
{
glyphname = two;
layers = (
{
layerId = "1701E5CE-665D-45EA-89A5-8373A0C97990";
paths = (
{
closed = 1;
nodes = (
"448 64 LINE",
"384 64 LINE",
"320 64 LINE",
"256 64 LINE",
"256 128 LINE",
"320 128 LINE",
"320 192 LINE",
"384 192 LINE",
"448 192 LINE",
"448 256 LINE",
"512 256 LINE",
"512 320 LINE",
"512 384 LINE",
"448 384 LINE",
"448 448 LINE",
"384 448 LINE",
"320 448 LINE",
"256 448 LINE",
"192 448 LINE",
"128 448 LINE",
"128 384 LINE",
"64 384 LINE",
"64 320 LINE",
"128 320 LINE",
"192 320 LINE",
"192 384 LINE",
"256 384 LINE",
"320 384 LINE",
"320 320 LINE",
"320 256 LINE",
"256 256 LINE",
"192 256 LINE",
"192 192 LINE",
"128 192 LINE",
"128 128 LINE",
"64 128 LINE",
"64 64 LINE",
"64 0 LINE",
"128 0 LINE",
"192 0 LINE",
"256 0 LINE",
"320 0 LINE",
"384 0 LINE",
"448 0 LINE",
"512 0 LINE",
"512 64 LINE",
"448 64 LINE"
);
}
);
width = 512;
}
);
note = two;
unicode = 0032;
},
{
glyphname = three;
layers = (
{
layerId = "1701E5CE-665D-45EA-89A5-8373A0C97990";
paths = (
{
closed = 1;
nodes = (
"384 0 LINE",
"448 0 LINE",
"448 64 LINE",
"512 64 LINE",
"512 128 LINE",
"512 192 LINE",
"448 192 LINE",
"448 256 LINE",
"384 256 LINE",
"384 320 LINE",
"448 320 LINE",
"448 384 LINE",
"512 384 LINE",
"512 448 LINE",
"448 448 LINE",
"384 448 LINE",
"320 448 LINE",
"256 448 LINE",
"192 448 LINE",
"128 448 LINE",
"128 384 LINE",
"192 384 LINE",
"256 384 LINE",
"320 384 LINE",
"320 320 LINE",
"256 320 LINE",
"192 320 LINE",
"192 256 LINE",
"256 256 LINE",
"320 256 LINE",
"320 192 LINE",
"320 128 LINE",
"320 64 LINE",
"256 64 LINE",
"192 64 LINE",
"192 128 LINE",
"128 128 LINE",
"64 128 LINE",
"64 64 LINE",
"128 64 LINE",
"128 0 LINE",
"192 0 LINE",
"256 0 LINE",
"320 0 LINE",
"384 0 LINE"
);
}
);
width = 512;
}
);
note = three;
unicode = 0033;
},
{
glyphname = four;
layers = (
{
layerId = "1701E5CE-665D-45EA-89A5-8373A0C97990";
paths = (
{
closed = 1;
nodes = (
"384 0 LINE",
"448 0 LINE",
"448 64 LINE",
"448 128 LINE",
"512 128 LINE",
"512 192 LINE",
"448 192 LINE",
"448 256 LINE",
"448 320 LINE",
"448 384 LINE",
"448 448 LINE",
"384 448 LINE",
"320 448 LINE",
"256 448 LINE",
"256 384 LINE",
"192 384 LINE",
"192 320 LINE",
"128 320 LINE",
"128 256 LINE",
"64 256 LINE",
"64 192 LINE",
"64 128 LINE",
"128 128 LINE",
"192 128 LINE",
"256 128 LINE",
"320 128 LINE",
"320 64 LINE",
"320 0 LINE",
"384 0 LINE"
);
},
{
closed = 1;
nodes = (
"256 192 LINE",
"192 192 LINE",
"192 256 LINE",
"256 256 LINE",
"256 320 LINE",
"320 320 LINE",
"320 256 LINE",
"320 192 LINE",
"256 192 LINE"
);
}
);
width = 512;
}
);
note = four;
unicode = 0034;
},
{
glyphname = five;
layers = (
{
layerId = "1701E5CE-665D-45EA-89A5-8373A0C97990";
paths = (
{
closed = 1;
nodes = (
"384 0 LINE",
"448 0 LINE",
"448 64 LINE",
"512 64 LINE",
"512 128 LINE",
"512 192 LINE",
"512 256 LINE",
"448 256 LINE",
"448 320 LINE",
"384 320 LINE",
"320 320 LINE",
"256 320 LINE",
"192 320 LINE",
"192 384 LINE",
"256 384 LINE",
"320 384 LINE",
"384 384 LINE",
"448 384 LINE",
"448 448 LINE",
"384 448 LINE",
"320 448 LINE",
"256 448 LINE",
"192 448 LINE",
"128 448 LINE",
"64 448 LINE",
"64 384 LINE",
"64 320 LINE",
"64 256 LINE",
"128 256 LINE",
"192 256 LINE",
"256 256 LINE",
"320 256 LINE",
"320 192 LINE",
"320 128 LINE",
"320 64 LINE",
"256 64 LINE",
"192 64 LINE",
"192 128 LINE",
"128 128 LINE",
"64 128 LINE",
"64 64 LINE",
"128 64 LINE",
"128 0 LINE",
"192 0 LINE",
"256 0 LINE",
"320 0 LINE",
"384 0 LINE"
);
}
);
width = 512;
}
);
note = five;
unicode = 0035;
},
{
glyphname = six;
layers = (
{
layerId = "1701E5CE-665D-45EA-89A5-8373A0C97990";
paths = (
{
closed = 1;
nodes = (
"384 0 LINE",
"448 0 LINE",
"448 64 LINE",
"512 64 LINE",
"512 128 LINE",
"512 192 LINE",
"512 256 LINE",
"448 256 LINE",
"448 320 LINE",
"384 320 LINE",
"320 320 LINE",
"256 320 LINE",
"192 320 LINE",
"192 384 LINE",
"256 384 LINE",
"320 384 LINE",
"384 384 LINE",
"448 384 LINE",
"448 448 LINE",
"384 448 LINE",
"320 448 LINE",
"256 448 LINE",
"192 448 LINE",
"128 448 LINE",
"128 384 LINE",
"64 384 LINE",
"64 320 LINE",
"64 256 LINE",
"64 192 LINE",
"64 128 LINE",
"64 64 LINE",
"128 64 LINE",
"128 0 LINE",
"192 0 LINE",
"256 0 LINE",
"320 0 LINE",
"384 0 LINE"
);
},
{
closed = 1;
nodes = (
"256 64 LINE",
"192 64 LINE",
"192 128 LINE",
"192 192 LINE",
"192 256 LINE",
"256 256 LINE",
"320 256 LINE",
"320 192 LINE",
"320 128 LINE",
"320 64 LINE",
"256 64 LINE"
);
}
);
width = 512;
}
);
note = six;
unicode = 0036;
},
{
glyphname = seven;
layers = (
{
layerId = "1701E5CE-665D-45EA-89A5-8373A0C97990";
paths = (
{
closed = 1;
nodes = (
"256 0 LINE",
"320 0 LINE",
"320 64 LINE",
"320 128 LINE",
"320 192 LINE",
"384 192 LINE",
"384 256 LINE",
"448 256 LINE",
"448 320 LINE",
"512 320 LINE",
"512 384 LINE",
"512 448 LINE",
"448 448 LINE",
"384 448 LINE",
"320 448 LINE",
"256 448 LINE",
"192 448 LINE",
"128 448 LINE",
"64 448 LINE",
"64 384 LINE",
"64 320 LINE",
"128 320 LINE",
"192 320 LINE",
"192 384 LINE",
"256 384 LINE",
"320 384 LINE",
"320 320 LINE",
"320 256 LINE",
"256 256 LINE",
"256 192 LINE",
"192 192 LINE",
"192 128 LINE",
"192 64 LINE",
"192 0 LINE",
"256 0 LINE"
);
}
);
width = 512;
}
);
note = seven;
unicode = 0037;
},
{
glyphname = eight;
layers = (
{
layerId = "1701E5CE-665D-45EA-89A5-8373A0C97990";
paths = (
{
closed = 1;
nodes = (
"384 0 LINE",
"448 0 LINE",
"448 64 LINE",
"512 64 LINE",
"512 128 LINE",
"512 192 LINE",
"448 192 LINE",
"448 256 LINE",
"512 256 LINE",
"512 320 LINE",
"512 384 LINE",
"448 384 LINE",
"448 448 LINE",
"384 448 LINE",
"320 448 LINE",
"256 448 LINE",
"192 448 LINE",
"128 448 LINE",
"128 384 LINE",
"64 384 LINE",
"64 320 LINE",
"64 256 LINE",
"128 256 LINE",
"128 192 LINE",
"64 192 LINE",
"64 128 LINE",
"64 64 LINE",
"128 64 LINE",
"128 0 LINE",
"192 0 LINE",
"256 0 LINE",
"320 0 LINE",
"384 0 LINE"
);
},
{
closed = 1;
nodes = (
"256 64 LINE",
"192 64 LINE",
"192 128 LINE",
"192 192 LINE",
"256 192 LINE",
"320 192 LINE",
"320 128 LINE",
"320 64 LINE",
"256 64 LINE"
);
},
{
closed = 1;
nodes = (
"256 256 LINE",
"192 256 LINE",
"192 320 LINE",
"192 384 LINE",
"256 384 LINE",
"320 384 LINE",
"320 320 LINE",
"320 256 LINE",
"256 256 LINE"
);
}
);
width = 512;
}
);
note = eight;
unicode = 0038;
},
{
glyphname = nine;
layers = (
{
layerId = "1701E5CE-665D-45EA-89A5-8373A0C97990";
paths = (
{
closed = 1;
nodes = (
"384 0 LINE",
"448 0 LINE",
"448 64 LINE",
"512 64 LINE",
"512 128 LINE",
"512 192 LINE",
"512 256 LINE",
"512 320 LINE",
"512 384 LINE",
"448 384 LINE",
"448 448 LINE",
"384 448 LINE",
"320 448 LINE",
"256 448 LINE",
"192 448 LINE",
"128 448 LINE",
"128 384 LINE",
"64 384 LINE",
"64 320 LINE",
"64 256 LINE",
"128 256 LINE",
"128 192 LINE",
"192 192 LINE",
"256 192 LINE",
"320 192 LINE",
"320 128 LINE",
"320 64 LINE",
"256 64 LINE",
"192 64 LINE",
"128 64 LINE",
"128 0 LINE",
"192 0 LINE",
"256 0 LINE",
"320 0 LINE",
"384 0 LINE"
);
},
{
closed = 1;
nodes = (
"256 256 LINE",
"192 256 LINE",
"192 320 LINE",
"192 384 LINE",
"256 384 LINE",
"320 384 LINE",
"320 320 LINE",
"320 256 LINE",
"256 256 LINE"
);
}
);
width = 512;
}
);
note = nine;
unicode = 0039;
},
{
glyphname = period;
layers = (
{
layerId = "1701E5CE-665D-45EA-89A5-8373A0C97990";
paths = (
{
closed = 1;
nodes = (
"128 0 LINE",
"192 0 LINE",
"192 64 LINE",
"192 128 LINE",
"128 128 LINE",
"64 128 LINE",
"64 64 LINE",
"64 0 LINE",
"128 0 LINE"
);
}
);
width = 192;
}
);
note = period;
unicode = 002E;
},
{
glyphname = comma;
layers = (
{
layerId = "1701E5CE-665D-45EA-89A5-8373A0C97990";
paths = (
{
closed = 1;
nodes = (
"128 -64 LINE",
"192 -64 LINE",
"192 0 LINE",
"256 0 LINE",
"256 64 LINE",
"256 128 LINE",
"192 128 LINE",
"128 128 LINE",
"128 64 LINE",
"128 0 LINE",
"64 0 LINE",
"64 -64 LINE",
"128 -64 LINE"
);
}
);
width = 256;
}
);
note = comma;
unicode = 002C;
},
{
glyphname = colon;
layers = (
{
layerId = "1701E5CE-665D-45EA-89A5-8373A0C97990";
paths = (
{
closed = 1;
nodes = (
"128 0 LINE",
"192 0 LINE",
"192 64 LINE",
"192 128 LINE",
"128 128 LINE",
"64 128 LINE",
"64 64 LINE",
"64 0 LINE",
"128 0 LINE"
);
},
{
closed = 1;
nodes = (
"128 256 LINE",
"192 256 LINE",
"192 320 LINE",
"192 384 LINE",
"128 384 LINE",
"64 384 LINE",
"64 320 LINE",
"64 256 LINE",
"128 256 LINE"
);
}
);
width = 192;
}
);
note = colon;
unicode = 003A;
},
{
glyphname = semicolon;
layers = (
{
layerId = "1701E5CE-665D-45EA-89A5-8373A0C97990";
paths = (
{
closed = 1;
nodes = (
"128 -64 LINE",
"192 -64 LINE",
"192 0 LINE",
"256 0 LINE",
"256 64 LINE",
"256 128 LINE",
"192 128 LINE",
"128 128 LINE",
"128 64 LINE",
"128 0 LINE",
"64 0 LINE",
"64 -64 LINE",
"128 -64 LINE"
);
},
{
closed = 1;
nodes = (
"192 256 LINE",
"256 256 LINE",
"256 320 LINE",
"256 384 LINE",
"192 384 LINE",
"128 384 LINE",
"128 320 LINE",
"128 256 LINE",
"192 256 LINE"
);
}
);
width = 256;
}
);
note = semicolon;
unicode = 003B;
},
{
glyphname = exclam;
layers = (
{
layerId = "1701E5CE-665D-45EA-89A5-8373A0C97990";
paths = (
{
closed = 1;
nodes = (
"192 0 LINE",
"256 0 LINE",
"256 64 LINE",
"256 128 LINE",
"192 128 LINE",
"128 128 LINE",
"128 64 LINE",
"128 0 LINE",
"192 0 LINE"
);
},
{
closed = 1;
nodes = (
"192 192 LINE",
"256 192 LINE",
"256 256 LINE",
"320 256 LINE",
"320 320 LINE",
"320 384 LINE",
"256 384 LINE",
"256 448 LINE",
"192 448 LINE",
"128 448 LINE",
"128 384 LINE",
"64 384 LINE",
"64 320 LINE",
"64 256 LINE",
"128 256 LINE",
"128 192 LINE",
"192 192 LINE"
);
}
);
width = 320;
}
);
note = exclam;
unicode = 0021;
},
{
glyphname = exclamdown;
layers = (
{
layerId = "1701E5CE-665D-45EA-89A5-8373A0C97990";
paths = (
{
closed = 1;
nodes = (
"192 0 LINE",
"256 0 LINE",
"256 64 LINE",
"320 64 LINE",
"320 128 LINE",
"320 192 LINE",
"256 192 LINE",
"256 256 LINE",
"192 256 LINE",
"128 256 LINE",
"128 192 LINE",
"64 192 LINE",
"64 128 LINE",
"64 64 LINE",
"128 64 LINE",
"128 0 LINE",
"192 0 LINE"
);
},
{
closed = 1;
nodes = (
"192 320 LINE",
"256 320 LINE",
"256 384 LINE",
"256 448 LINE",
"192 448 LINE",
"128 448 LINE",
"128 384 LINE",
"128 320 LINE",
"192 320 LINE"
);
}
);
width = 320;
}
);
note = exclamdown;
unicode = 00A1;
},
{
glyphname = question;
layers = (
{
layerId = "1701E5CE-665D-45EA-89A5-8373A0C97990";
paths = (
{
closed = 1;
nodes = (
"256 64 LINE",
"192 64 LINE",
"192 0 LINE",
"256 0 LINE",
"320 0 LINE",
"320 64 LINE",
"256 64 LINE"
);
},
{
closed = 1;
nodes = (
"256 128 LINE",
"320 128 LINE",
"320 192 LINE",
"384 192 LINE",
"384 256 LINE",
"448 256 LINE",
"448 320 LINE",
"448 384 LINE",
"384 384 LINE",
"384 448 LINE",
"320 448 LINE",
"256 448 LINE",
"192 448 LINE",
"128 448 LINE",
"128 384 LINE",
"64 384 LINE",
"64 320 LINE",
"64 256 LINE",
"128 256 LINE",
"192 256 LINE",
"192 320 LINE",
"192 384 LINE",
"256 384 LINE",
"320 384 LINE",
"320 320 LINE",
"320 256 LINE",
"256 256 LINE",
"256 192 LINE",
"192 192 LINE",
"192 128 LINE",
"256 128 LINE"
);
}
);
width = 448;
}
);
note = question;
unicode = 003F;
},
{
glyphname = periodcentered;
layers = (
{
layerId = "1701E5CE-665D-45EA-89A5-8373A0C97990";
paths = (
{
closed = 1;
nodes = (
"128 192 LINE",
"192 192 LINE",
"192 256 LINE",
"192 320 LINE",
"128 320 LINE",
"64 320 LINE",
"64 256 LINE",
"64 192 LINE",
"128 192 LINE"
);
}
);
width = 192;
}
);
note = periodcentered;
unicode = 00B7;
},
{
glyphname = asterisk;
layers = (
{
layerId = "1701E5CE-665D-45EA-89A5-8373A0C97990";
paths = (
{
closed = 1;
nodes = (
"320 192 LINE",
"384 192 LINE",
"384 256 LINE",
"320 256 LINE",
"320 320 LINE",
"384 320 LINE",
"384 384 LINE",
"320 384 LINE",
"256 384 LINE",
"256 448 LINE",
"192 448 LINE",
"192 384 LINE",
"128 384 LINE",
"64 384 LINE",
"64 320 LINE",
"128 320 LINE",
"128 256 LINE",
"64 256 LINE",
"64 192 LINE",
"128 192 LINE",
"192 192 LINE",
"192 256 LINE",
"256 256 LINE",
"256 192 LINE",
"320 192 LINE"
);
}
);
width = 384;
}
);
note = asterisk;
unicode = 002A;
},
{
glyphname = numbersign;
layers = (
{
layerId = "1701E5CE-665D-45EA-89A5-8373A0C97990";
paths = (
{
closed = 1;
nodes = (
"384 0 LINE",
"448 0 LINE",
"448 64 LINE",
"512 64 LINE",
"512 128 LINE",
"512 192 LINE",
"448 192 LINE",
"448 256 LINE",
"512 256 LINE",
"512 320 LINE",
"512 384 LINE",
"448 384 LINE",
"448 448 LINE",
"384 448 LINE",
"320 448 LINE",
"320 384 LINE",
"256 384 LINE",
"256 448 LINE",
"192 448 LINE",
"128 448 LINE",
"128 384 LINE",
"64 384 LINE",
"64 320 LINE",
"64 256 LINE",
"128 256 LINE",
"128 192 LINE",
"64 192 LINE",
"64 128 LINE",
"64 64 LINE",
"128 64 LINE",
"128 0 LINE",
"192 0 LINE",
"256 0 LINE",
"256 64 LINE",
"320 64 LINE",
"320 0 LINE",
"384 0 LINE"
);
},
{
closed = 1;
nodes = (
"320 192 LINE",
"256 192 LINE",
"256 256 LINE",
"320 256 LINE",
"320 192 LINE"
);
}
);
width = 512;
}
);
note = numbersign;
unicode = 0023;
},
{
glyphname = slash;
layers = (
{
layerId = "1701E5CE-665D-45EA-89A5-8373A0C97990";
paths = (
{
closed = 1;
nodes = (
"128 0 LINE",
"192 0 LINE",
"192 64 LINE",
"256 64 LINE",
"256 128 LINE",
"320 128 LINE",
"320 192 LINE",
"384 192 LINE",
"384 256 LINE",
"448 256 LINE",
"448 320 LINE",
"512 320 LINE",
"512 384 LINE",
"512 448 LINE",
"448 448 LINE",
"448 384 LINE",
"384 384 LINE",
"384 320 LINE",
"320 320 LINE",
"320 256 LINE",
"256 256 LINE",
"256 192 LINE",
"192 192 LINE",
"192 128 LINE",
"128 128 LINE",
"128 64 LINE",
"64 64 LINE",
"64 0 LINE",
"128 0 LINE"
);
}
);
width = 512;
}
);
note = slash;
unicode = 002F;
},
{
glyphname = backslash;
layers = (
{
layerId = "1701E5CE-665D-45EA-89A5-8373A0C97990";
paths = (
{
closed = 1;
nodes = (
"448 0 LINE",
"512 0 LINE",
"512 64 LINE",
"448 64 LINE",
"448 128 LINE",
"384 128 LINE",
"384 192 LINE",
"320 192 LINE",
"320 256 LINE",
"256 256 LINE",
"256 320 LINE",
"192 320 LINE",
"192 384 LINE",
"128 384 LINE",
"128 448 LINE",
"64 448 LINE",
"64 384 LINE",
"64 320 LINE",
"128 320 LINE",
"128 256 LINE",
"192 256 LINE",
"192 192 LINE",
"256 192 LINE",
"256 128 LINE",
"320 128 LINE",
"320 64 LINE",
"384 64 LINE",
"384 0 LINE",
"448 0 LINE"
);
}
);
width = 512;
}
);
note = backslash;
unicode = 005C;
},
{
glyphname = parenleft;
layers = (
{
layerId = "1701E5CE-665D-45EA-89A5-8373A0C97990";
paths = (
{
closed = 1;
nodes = (
"256 0 LINE",
"320 0 LINE",
"320 64 LINE",
"256 64 LINE",
"256 128 LINE",
"192 128 LINE",
"192 192 LINE",
"192 256 LINE",
"192 320 LINE",
"256 320 LINE",
"256 384 LINE",
"320 384 LINE",
"320 448 LINE",
"256 448 LINE",
"192 448 LINE",
"192 384 LINE",
"128 384 LINE",
"128 320 LINE",
"64 320 LINE",
"64 256 LINE",
"64 192 LINE",
"64 128 LINE",
"128 128 LINE",
"128 64 LINE",
"192 64 LINE",
"192 0 LINE",
"256 0 LINE"
);
}
);
width = 320;
}
);
note = parenleft;
unicode = 0028;
},
{
glyphname = parenright;
layers = (
{
layerId = "1701E5CE-665D-45EA-89A5-8373A0C97990";
paths = (
{
closed = 1;
nodes = (
"128 0 LINE",
"192 0 LINE",
"192 64 LINE",
"256 64 LINE",
"256 128 LINE",
"320 128 LINE",
"320 192 LINE",
"320 256 LINE",
"320 320 LINE",
"256 320 LINE",
"256 384 LINE",
"192 384 LINE",
"192 448 LINE",
"128 448 LINE",
"64 448 LINE",
"64 384 LINE",
"128 384 LINE",
"128 320 LINE",
"192 320 LINE",
"192 256 LINE",
"192 192 LINE",
"192 128 LINE",
"128 128 LINE",
"128 64 LINE",
"64 64 LINE",
"64 0 LINE",
"128 0 LINE"
);
}
);
width = 320;
}
);
note = parenright;
unicode = 0029;
},
{
glyphname = braceleft;
layers = (
{
layerId = "1701E5CE-665D-45EA-89A5-8373A0C97990";
paths = (
{
closed = 1;
nodes = (
"256 0 LINE",
"320 0 LINE",
"320 64 LINE",
"256 64 LINE",
"256 128 LINE",
"192 128 LINE",
"192 192 LINE",
"192 256 LINE",
"192 320 LINE",
"256 320 LINE",
"256 384 LINE",
"320 384 LINE",
"320 448 LINE",
"256 448 LINE",
"192 448 LINE",
"192 384 LINE",
"128 384 LINE",
"128 320 LINE",
"128 256 LINE",
"64 256 LINE",
"64 192 LINE",
"128 192 LINE",
"128 128 LINE",
"128 64 LINE",
"192 64 LINE",
"192 0 LINE",
"256 0 LINE"
);
}
);
width = 320;
}
);
note = braceleft;
unicode = 007B;
},
{
glyphname = braceright;
layers = (
{
layerId = "1701E5CE-665D-45EA-89A5-8373A0C97990";
paths = (
{
closed = 1;
nodes = (
"128 0 LINE",
"192 0 LINE",
"192 64 LINE",
"256 64 LINE",
"256 128 LINE",
"256 192 LINE",
"320 192 LINE",
"320 256 LINE",
"256 256 LINE",
"256 320 LINE",
"256 384 LINE",
"192 384 LINE",
"192 448 LINE",
"128 448 LINE",
"64 448 LINE",
"64 384 LINE",
"128 384 LINE",
"128 320 LINE",
"192 320 LINE",
"192 256 LINE",
"192 192 LINE",
"192 128 LINE",
"128 128 LINE",
"128 64 LINE",
"64 64 LINE",
"64 0 LINE",
"128 0 LINE"
);
}
);
width = 320;
}
);
note = braceright;
unicode = 007D;
},
{
glyphname = bracketleft;
layers = (
{
layerId = "1701E5CE-665D-45EA-89A5-8373A0C97990";
paths = (
{
closed = 1;
nodes = (
"192 0 LINE",
"256 0 LINE",
"256 64 LINE",
"192 64 LINE",
"192 128 LINE",
"192 192 LINE",
"192 256 LINE",
"192 320 LINE",
"192 384 LINE",
"256 384 LINE",
"256 448 LINE",
"192 448 LINE",
"128 448 LINE",
"64 448 LINE",
"64 384 LINE",
"64 320 LINE",
"64 256 LINE",
"64 192 LINE",
"64 128 LINE",
"64 64 LINE",
"64 0 LINE",
"128 0 LINE",
"192 0 LINE"
);
}
);
width = 256;
}
);
note = bracketleft;
unicode = 005B;
},
{
glyphname = bracketright;
layers = (
{
layerId = "1701E5CE-665D-45EA-89A5-8373A0C97990";
paths = (
{
closed = 1;
nodes = (
"192 0 LINE",
"256 0 LINE",
"256 64 LINE",
"256 128 LINE",
"256 192 LINE",
"256 256 LINE",
"256 320 LINE",
"256 384 LINE",
"256 448 LINE",
"192 448 LINE",
"128 448 LINE",
"64 448 LINE",
"64 384 LINE",
"128 384 LINE",
"128 320 LINE",
"128 256 LINE",
"128 192 LINE",
"128 128 LINE",
"128 64 LINE",
"64 64 LINE",
"64 0 LINE",
"128 0 LINE",
"192 0 LINE"
);
}
);
width = 256;
}
);
note = bracketright;
unicode = 005D;
},
{
glyphname = hyphen;
layers = (
{
layerId = "1701E5CE-665D-45EA-89A5-8373A0C97990";
paths = (
{
closed = 1;
nodes = (
"384 192 LINE",
"448 192 LINE",
"448 256 LINE",
"448 320 LINE",
"384 320 LINE",
"320 320 LINE",
"256 320 LINE",
"192 320 LINE",
"128 320 LINE",
"64 320 LINE",
"64 256 LINE",
"64 192 LINE",
"128 192 LINE",
"192 192 LINE",
"256 192 LINE",
"320 192 LINE",
"384 192 LINE"
);
}
);
width = 448;
}
);
note = hyphen;
unicode = 002D;
},
{
glyphname = underscore;
layers = (
{
layerId = "1701E5CE-665D-45EA-89A5-8373A0C97990";
paths = (
{
closed = 1;
nodes = (
"384 0 LINE",
"320 0 LINE",
"256 0 LINE",
"192 0 LINE",
"128 0 LINE",
"64 0 LINE",
"0 0 LINE",
"0 -64 LINE",
"64 -64 LINE",
"128 -64 LINE",
"192 -64 LINE",
"256 -64 LINE",
"320 -64 LINE",
"384 -64 LINE",
"448 -64 LINE",
"448 0 LINE",
"384 0 LINE"
);
}
);
width = 448;
}
);
note = underscore;
unicode = 005F;
},
{
glyphname = guillemetleft;
layers = (
{
layerId = "1701E5CE-665D-45EA-89A5-8373A0C97990";
paths = (
{
closed = 1;
nodes = (
"576 0 LINE",
"640 0 LINE",
"640 64 LINE",
"576 64 LINE",
"576 128 LINE",
"512 128 LINE",
"512 192 LINE",
"448 192 LINE",
"448 256 LINE",
"512 256 LINE",
"512 320 LINE",
"576 320 LINE",
"576 384 LINE",
"640 384 LINE",
"640 448 LINE",
"576 448 LINE",
"512 448 LINE",
"512 384 LINE",
"448 384 LINE",
"448 320 LINE",
"384 320 LINE",
"384 256 LINE",
"320 256 LINE",
"320 192 LINE",
"384 192 LINE",
"384 128 LINE",
"448 128 LINE",
"448 64 LINE",
"512 64 LINE",
"512 0 LINE",
"576 0 LINE"
);
},
{
closed = 1;
nodes = (
"320 0 LINE",
"384 0 LINE",
"384 64 LINE",
"320 64 LINE",
"320 128 LINE",
"256 128 LINE",
"256 192 LINE",
"192 192 LINE",
"192 256 LINE",
"256 256 LINE",
"256 320 LINE",
"320 320 LINE",
"320 384 LINE",
"384 384 LINE",
"384 448 LINE",
"320 448 LINE",
"256 448 LINE",
"256 384 LINE",
"192 384 LINE",
"192 320 LINE",
"128 320 LINE",
"128 256 LINE",
"64 256 LINE",
"64 192 LINE",
"128 192 LINE",
"128 128 LINE",
"192 128 LINE",
"192 64 LINE",
"256 64 LINE",
"256 0 LINE",
"320 0 LINE"
);
}
);
width = 640;
}
);
note = guillemotleft;
unicode = 00AB;
},
{
glyphname = guillemetright;
layers = (
{
layerId = "1701E5CE-665D-45EA-89A5-8373A0C97990";
paths = (
{
closed = 1;
nodes = (
"384 0 LINE",
"448 0 LINE",
"448 64 LINE",
"512 64 LINE",
"512 128 LINE",
"576 128 LINE",
"576 192 LINE",
"640 192 LINE",
"640 256 LINE",
"576 256 LINE",
"576 320 LINE",
"512 320 LINE",
"512 384 LINE",
"448 384 LINE",
"448 448 LINE",
"384 448 LINE",
"320 448 LINE",
"320 384 LINE",
"384 384 LINE",
"384 320 LINE",
"448 320 LINE",
"448 256 LINE",
"512 256 LINE",
"512 192 LINE",
"448 192 LINE",
"448 128 LINE",
"384 128 LINE",
"384 64 LINE",
"320 64 LINE",
"320 0 LINE",
"384 0 LINE"
);
},
{
closed = 1;
nodes = (
"128 0 LINE",
"192 0 LINE",
"192 64 LINE",
"256 64 LINE",
"256 128 LINE",
"320 128 LINE",
"320 192 LINE",
"384 192 LINE",
"384 256 LINE",
"320 256 LINE",
"320 320 LINE",
"256 320 LINE",
"256 384 LINE",
"192 384 LINE",
"192 448 LINE",
"128 448 LINE",
"64 448 LINE",
"64 384 LINE",
"128 384 LINE",
"128 320 LINE",
"192 320 LINE",
"192 256 LINE",
"256 256 LINE",
"256 192 LINE",
"192 192 LINE",
"192 128 LINE",
"128 128 LINE",
"128 64 LINE",
"64 64 LINE",
"64 0 LINE",
"128 0 LINE"
);
}
);
width = 640;
}
);
note = guillemotright;
unicode = 00BB;
},
{
glyphname = quotedbl;
layers = (
{
layerId = "1701E5CE-665D-45EA-89A5-8373A0C97990";
paths = (
{
closed = 1;
nodes = (
"320 256 LINE",
"384 256 LINE",
"384 320 LINE",
"384 384 LINE",
"384 448 LINE",
"320 448 LINE",
"256 448 LINE",
"256 384 LINE",
"256 320 LINE",
"320 320 LINE",
"320 256 LINE"
);
},
{
closed = 1;
nodes = (
"128 256 LINE",
"192 256 LINE",
"192 320 LINE",
"192 384 LINE",
"192 448 LINE",
"128 448 LINE",
"64 448 LINE",
"64 384 LINE",
"64 320 LINE",
"128 320 LINE",
"128 256 LINE"
);
}
);
width = 384;
}
);
note = quotedbl;
unicode = 0022;
},
{
glyphname = quotesingle;
layers = (
{
layerId = "1701E5CE-665D-45EA-89A5-8373A0C97990";
paths = (
{
closed = 1;
nodes = (
"128 256 LINE",
"192 256 LINE",
"192 320 LINE",
"192 384 LINE",
"192 448 LINE",
"128 448 LINE",
"64 448 LINE",
"64 384 LINE",
"64 320 LINE",
"128 320 LINE",
"128 256 LINE"
);
}
);
width = 192;
}
);
note = quotesingle;
unicode = 0027;
},
{
glyphname = .notdef;
layers = (
{
layerId = "1701E5CE-665D-45EA-89A5-8373A0C97990";
paths = (
{
closed = 1;
nodes = (
"34 0 LINE",
"306 0 LINE",
"306 682 LINE",
"34 682 LINE",
"34 0 LINE"
);
},
{
closed = 1;
nodes = (
"68 34 LINE",
"68 648 LINE",
"272 648 LINE",
"272 34 LINE",
"68 34 LINE"
);
}
);
userData = {
assembly = "PUSHB[ ]	/* 2 values pushed */\0121 0 \012MDAP[1]	/* MoveDirectAbsPt */\012ALIGNRP[ ]	/* AlignRelativePt */\012PUSHB[ ]	/* 3 values pushed */\0127 4 0 \012MIRP[01101]	/* MoveIndirectRelPt */\012SHP[0]	/* ShiftPointByLastPoint */\012PUSHB[ ]	/* 2 values pushed */\0126 5 \012MDRP[11100]	/* MoveDirectRelPt */\012ALIGNRP[ ]	/* AlignRelativePt */\012PUSHB[ ]	/* 3 values pushed */\0123 2 0 \012MIRP[01101]	/* MoveIndirectRelPt */\012SHP[0]	/* ShiftPointByLastPoint */\012SVTCA[0]	/* SetFreedomAndProjectionVectorToAxis */\012PUSHB[ ]	/* 2 values pushed */\0123 0 \012MDAP[1]	/* MoveDirectAbsPt */\012ALIGNRP[ ]	/* AlignRelativePt */\012PUSHB[ ]	/* 3 values pushed */\0125 4 0 \012MIRP[01101]	/* MoveIndirectRelPt */\012SHP[0]	/* ShiftPointByLastPoint */\012PUSHB[ ]	/* 3 values pushed */\0127 6 1 \012MIRP[11100]	/* MoveIndirectRelPt */\012ALIGNRP[ ]	/* AlignRelativePt */\012PUSHB[ ]	/* 3 values pushed */\0121 2 0 \012MIRP[01101]	/* MoveIndirectRelPt */\012SHP[0]	/* ShiftPointByLastPoint */";
};
width = 374;
}
);
note = .notdef;
},
{
glyphname = at;
layers = (
{
layerId = "1701E5CE-665D-45EA-89A5-8373A0C97990";
paths = (
{
closed = 1;
nodes = (
"448 64 LINE",
"384 64 LINE",
"320 64 LINE",
"256 64 LINE",
"192 64 LINE",
"128 64 LINE",
"128 128 LINE",
"128 192 LINE",
"128 256 LINE",
"128 320 LINE",
"128 384 LINE",
"192 384 LINE",
"256 384 LINE",
"320 384 LINE",
"384 384 LINE",
"384 320 LINE",
"320 320 LINE",
"256 320 LINE",
"192 320 LINE",
"192 256 LINE",
"192 192 LINE",
"192 128 LINE",
"256 128 LINE",
"320 128 LINE",
"384 128 LINE",
"448 128 LINE",
"512 128 LINE",
"512 192 LINE",
"512 256 LINE",
"512 320 LINE",
"512 384 LINE",
"512 448 LINE",
"448 448 LINE",
"384 448 LINE",
"320 448 LINE",
"256 448 LINE",
"192 448 LINE",
"128 448 LINE",
"64 448 LINE",
"64 384 LINE",
"64 320 LINE",
"64 256 LINE",
"64 192 LINE",
"64 128 LINE",
"64 64 LINE",
"64 0 LINE",
"128 0 LINE",
"192 0 LINE",
"256 0 LINE",
"320 0 LINE",
"384 0 LINE",
"448 0 LINE",
"512 0 LINE",
"512 64 LINE",
"448 64 LINE"
);
},
{
closed = 1;
nodes = (
"384 192 LINE",
"320 192 LINE",
"320 256 LINE",
"384 256 LINE",
"384 192 LINE"
);
}
);
width = 512;
}
);
note = at;
unicode = 0040;
},
{
glyphname = ampersand;
layers = (
{
layerId = "1701E5CE-665D-45EA-89A5-8373A0C97990";
paths = (
{
closed = 1;
nodes = (
"448 128 LINE",
"512 128 LINE",
"512 192 LINE",
"448 192 LINE",
"448 128 LINE"
);
},
{
closed = 1;
nodes = (
"256 384 LINE",
"320 384 LINE",
"320 448 LINE",
"256 448 LINE",
"192 448 LINE",
"192 384 LINE",
"128 384 LINE",
"128 320 LINE",
"128 256 LINE",
"192 256 LINE",
"192 192 LINE",
"256 192 LINE",
"256 128 LINE",
"320 128 LINE",
"320 64 LINE",
"192 64 LINE",
"192 192 LINE",
"128 192 LINE",
"128 128 LINE",
"64 128 LINE",
"64 64 LINE",
"128 64 LINE",
"128 0 LINE",
"192 0 LINE",
"256 0 LINE",
"320 0 LINE",
"384 0 LINE",
"384 64 LINE",
"449 64 LINE",
"448 128 LINE",
"384 128 LINE",
"384 192 LINE",
"320 192 LINE",
"320 256 LINE",
"256 256 LINE",
"256 320 LINE",
"256 384 LINE"
);
},
{
closed = 1;
nodes = (
"449 0 LINE",
"513 0 LINE",
"513 64 LINE",
"449 64 LINE",
"449 0 LINE"
);
},
{
closed = 1;
nodes = (
"384 256 LINE",
"384 384 LINE",
"320 384 LINE",
"320 256 LINE",
"384 256 LINE"
);
}
);
width = 512;
}
);
note = ampersand;
unicode = 0026;
},
{
glyphname = section;
layers = (
{
layerId = "1701E5CE-665D-45EA-89A5-8373A0C97990";
paths = (
{
closed = 1;
nodes = (
"256 0 LINE",
"320 0 LINE",
"320 64 LINE",
"384 64 LINE",
"384 128 LINE",
"384 192 LINE",
"320 192 LINE",
"320 256 LINE",
"320 320 LINE",
"256 320 LINE",
"192 320 LINE",
"192 384 LINE",
"256 384 LINE",
"320 384 LINE",
"320 448 LINE",
"256 448 LINE",
"192 448 LINE",
"128 448 LINE",
"128 384 LINE",
"64 384 LINE",
"64 320 LINE",
"64 256 LINE",
"128 256 LINE",
"128 192 LINE",
"128 128 LINE",
"192 128 LINE",
"256 128 LINE",
"256 64 LINE",
"192 64 LINE",
"128 64 LINE",
"128 0 LINE",
"192 0 LINE",
"256 0 LINE"
);
},
{
closed = 1;
nodes = (
"256 192 LINE",
"192 192 LINE",
"192 256 LINE",
"256 256 LINE",
"256 192 LINE"
);
}
);
width = 384;
}
);
note = section;
unicode = 00A7;
},
{
glyphname = copyright;
layers = (
{
layerId = "1701E5CE-665D-45EA-89A5-8373A0C97990";
paths = (
{
closed = 1;
nodes = (
"320 64 LINE",
"256 64 LINE",
"192 64 LINE",
"192 0 LINE",
"256 0 LINE",
"320 0 LINE",
"384 0 LINE",
"384 64 LINE",
"320 64 LINE"
);
},
{
closed = 1;
nodes = (
"384 64 LINE",
"448 64 LINE",
"448 128 LINE",
"384 128 LINE",
"384 64 LINE"
);
},
{
closed = 1;
nodes = (
"192 64 LINE",
"192 128 LINE",
"128 128 LINE",
"128 64 LINE",
"192 64 LINE"
);
},
{
closed = 1;
nodes = (
"448 128 LINE",
"512 128 LINE",
"512 192 LINE",
"512 256 LINE",
"512 320 LINE",
"448 320 LINE",
"448 256 LINE",
"448 192 LINE",
"448 128 LINE"
);
},
{
closed = 1;
nodes = (
"384 128 LINE",
"384 192 LINE",
"320 192 LINE",
"256 192 LINE",
"256 256 LINE",
"320 256 LINE",
"384 256 LINE",
"384 320 LINE",
"320 320 LINE",
"256 320 LINE",
"192 320 LINE",
"192 256 LINE",
"192 192 LINE",
"192 128 LINE",
"256 128 LINE",
"320 128 LINE",
"384 128 LINE"
);
},
{
closed = 1;
nodes = (
"128 128 LINE",
"128 192 LINE",
"128 256 LINE",
"128 320 LINE",
"64 320 LINE",
"64 256 LINE",
"64 192 LINE",
"64 128 LINE",
"128 128 LINE"
);
},
{
closed = 1;
nodes = (
"448 320 LINE",
"448 384 LINE",
"384 384 LINE",
"384 320 LINE",
"448 320 LINE"
);
},
{
closed = 1;
nodes = (
"192 320 LINE",
"192 384 LINE",
"128 384 LINE",
"128 320 LINE",
"192 320 LINE"
);
},
{
closed = 1;
nodes = (
"384 384 LINE",
"384 448 LINE",
"320 448 LINE",
"256 448 LINE",
"192 448 LINE",
"192 384 LINE",
"256 384 LINE",
"320 384 LINE",
"384 384 LINE"
);
}
);
width = 512;
}
);
note = copyright;
unicode = 00A9;
},
{
glyphname = registered;
layers = (
{
layerId = "1701E5CE-665D-45EA-89A5-8373A0C97990";
paths = (
{
closed = 1;
nodes = (
"320 64 LINE",
"256 64 LINE",
"192 64 LINE",
"192 0 LINE",
"256 0 LINE",
"320 0 LINE",
"384 0 LINE",
"384 64 LINE",
"320 64 LINE"
);
},
{
closed = 1;
nodes = (
"384 64 LINE",
"448 64 LINE",
"448 128 LINE",
"384 128 LINE",
"384 64 LINE"
);
},
{
closed = 1;
nodes = (
"192 64 LINE",
"192 128 LINE",
"128 128 LINE",
"128 64 LINE",
"192 64 LINE"
);
},
{
closed = 1;
nodes = (
"448 128 LINE",
"512 128 LINE",
"512 192 LINE",
"512 256 LINE",
"512 320 LINE",
"448 320 LINE",
"448 256 LINE",
"448 192 LINE",
"448 128 LINE"
);
},
{
closed = 1;
nodes = (
"192 128 LINE",
"256 128 LINE",
"256 192 LINE",
"256 256 LINE",
"320 256 LINE",
"384 256 LINE",
"384 320 LINE",
"320 320 LINE",
"256 320 LINE",
"192 320 LINE",
"192 256 LINE",
"192 192 LINE",
"192 128 LINE"
);
},
{
closed = 1;
nodes = (
"128 128 LINE",
"128 192 LINE",
"128 256 LINE",
"128 320 LINE",
"64 320 LINE",
"64 256 LINE",
"64 192 LINE",
"64 128 LINE",
"128 128 LINE"
);
},
{
closed = 1;
nodes = (
"448 320 LINE",
"448 384 LINE",
"384 384 LINE",
"384 320 LINE",
"448 320 LINE"
);
},
{
closed = 1;
nodes = (
"192 320 LINE",
"192 384 LINE",
"128 384 LINE",
"128 320 LINE",
"192 320 LINE"
);
},
{
closed = 1;
nodes = (
"384 384 LINE",
"384 448 LINE",
"320 448 LINE",
"256 448 LINE",
"192 448 LINE",
"192 384 LINE",
"256 384 LINE",
"320 384 LINE",
"384 384 LINE"
);
}
);
width = 512;
}
);
note = registered;
unicode = 00AE;
},
{
glyphname = degree;
layers = (
{
layerId = "1701E5CE-665D-45EA-89A5-8373A0C97990";
paths = (
{
closed = 1;
nodes = (
"192 256 LINE",
"128 256 LINE",
"128 192 LINE",
"192 192 LINE",
"256 192 LINE",
"256 256 LINE",
"192 256 LINE"
);
},
{
closed = 1;
nodes = (
"256 256 LINE",
"320 256 LINE",
"320 320 LINE",
"320 384 LINE",
"256 384 LINE",
"256 320 LINE",
"256 256 LINE"
);
},
{
closed = 1;
nodes = (
"128 256 LINE",
"128 320 LINE",
"128 384 LINE",
"64 384 LINE",
"64 320 LINE",
"64 256 LINE",
"128 256 LINE"
);
},
{
closed = 1;
nodes = (
"256 384 LINE",
"256 448 LINE",
"192 448 LINE",
"128 448 LINE",
"128 384 LINE",
"192 384 LINE",
"256 384 LINE"
);
}
);
width = 320;
}
);
note = degree;
unicode = 00B0;
},
{
glyphname = bar;
layers = (
{
layerId = "1701E5CE-665D-45EA-89A5-8373A0C97990";
paths = (
{
closed = 1;
nodes = (
"64 0 LINE",
"128 0 LINE",
"128 64 LINE",
"128 128 LINE",
"128 192 LINE",
"128 256 LINE",
"128 320 LINE",
"128 384 LINE",
"128 448 LINE",
"64 448 LINE",
"64 384 LINE",
"64 320 LINE",
"64 256 LINE",
"64 192 LINE",
"64 128 LINE",
"64 64 LINE",
"64 0 LINE"
);
}
);
width = 128;
}
);
note = bar;
unicode = 007C;
},
{
glyphname = brokenbar;
layers = (
{
layerId = "1701E5CE-665D-45EA-89A5-8373A0C97990";
paths = (
{
closed = 1;
nodes = (
"64 0 LINE",
"128 0 LINE",
"128 64 LINE",
"128 128 LINE",
"128 192 LINE",
"64 192 LINE",
"64 128 LINE",
"64 64 LINE",
"64 0 LINE"
);
},
{
closed = 1;
nodes = (
"64 256 LINE",
"128 256 LINE",
"128 320 LINE",
"128 384 LINE",
"128 448 LINE",
"64 448 LINE",
"64 384 LINE",
"64 320 LINE",
"64 256 LINE"
);
}
);
width = 128;
}
);
note = brokenbar;
unicode = 00A6;
},
{
glyphname = cent;
layers = (
{
layerId = "1701E5CE-665D-45EA-89A5-8373A0C97990";
paths = (
{
closed = 1;
nodes = (
"128 -64 LINE",
"192 -64 LINE",
"192 0 LINE",
"256 0 LINE",
"320 0 LINE",
"384 0 LINE",
"384 64 LINE",
"320 64 LINE",
"256 64 LINE",
"256 128 LINE",
"192 128 LINE",
"192 192 LINE",
"192 256 LINE",
"192 320 LINE",
"256 320 LINE",
"320 320 LINE",
"320 256 LINE",
"256 256 LINE",
"256 192 LINE",
"256 128 LINE",
"320 128 LINE",
"320 192 LINE",
"320 256 LINE",
"384 256 LINE",
"448 256 LINE",
"448 320 LINE",
"384 320 LINE",
"384 384 LINE",
"384 448 LINE",
"320 448 LINE",
"320 384 LINE",
"256 384 LINE",
"192 384 LINE",
"128 384 LINE",
"128 320 LINE",
"64 320 LINE",
"64 256 LINE",
"64 192 LINE",
"64 128 LINE",
"64 64 LINE",
"128 64 LINE",
"128 0 LINE",
"128 -64 LINE"
);
},
{
closed = 1;
nodes = (
"384 64 LINE",
"448 64 LINE",
"448 128 LINE",
"384 128 LINE",
"384 64 LINE"
);
}
);
width = 448;
}
);
note = cent;
unicode = 00A2;
},
{
glyphname = currency;
layers = (
{
layerId = "1701E5CE-665D-45EA-89A5-8373A0C97990";
paths = (
{
closed = 1;
nodes = (
"320 64 LINE",
"384 64 LINE",
"384 128 LINE",
"384 192 LINE",
"320 192 LINE",
"320 256 LINE",
"384 256 LINE",
"384 320 LINE",
"384 384 LINE",
"320 384 LINE",
"256 384 LINE",
"256 320 LINE",
"192 320 LINE",
"192 384 LINE",
"128 384 LINE",
"64 384 LINE",
"64 320 LINE",
"64 256 LINE",
"128 256 LINE",
"128 192 LINE",
"64 192 LINE",
"64 128 LINE",
"64 64 LINE",
"128 64 LINE",
"192 64 LINE",
"192 128 LINE",
"256 128 LINE",
"256 64 LINE",
"320 64 LINE"
);
},
{
closed = 1;
nodes = (
"256 192 LINE",
"192 192 LINE",
"192 256 LINE",
"256 256 LINE",
"256 192 LINE"
);
}
);
width = 384;
}
);
note = currency;
unicode = 00A4;
},
{
glyphname = dollar;
layers = (
{
layerId = "1701E5CE-665D-45EA-89A5-8373A0C97990";
paths = (
{
closed = 1;
nodes = (
"256 -64 LINE",
"320 -64 LINE",
"320 0 LINE",
"384 0 LINE",
"448 0 LINE",
"448 64 LINE",
"512 64 LINE",
"512 128 LINE",
"512 192 LINE",
"448 192 LINE",
"448 256 LINE",
"384 256 LINE",
"320 256 LINE",
"256 256 LINE",
"256 320 LINE",
"256 384 LINE",
"320 384 LINE",
"384 384 LINE",
"384 320 LINE",
"448 320 LINE",
"512 320 LINE",
"512 384 LINE",
"448 384 LINE",
"448 448 LINE",
"384 448 LINE",
"320 448 LINE",
"320 512 LINE",
"256 512 LINE",
"256 448 LINE",
"192 448 LINE",
"128 448 LINE",
"128 384 LINE",
"64 384 LINE",
"64 320 LINE",
"64 256 LINE",
"128 256 LINE",
"128 192 LINE",
"192 192 LINE",
"256 192 LINE",
"320 192 LINE",
"384 192 LINE",
"384 128 LINE",
"384 64 LINE",
"320 64 LINE",
"256 64 LINE",
"256 128 LINE",
"192 128 LINE",
"128 128 LINE",
"64 128 LINE",
"64 64 LINE",
"128 64 LINE",
"128 0 LINE",
"192 0 LINE",
"256 0 LINE",
"256 -64 LINE"
);
}
);
width = 512;
}
);
note = dollar;
unicode = 0024;
},
{
glyphname = euro;
layers = (
{
layerId = "1701E5CE-665D-45EA-89A5-8373A0C97990";
paths = (
{
closed = 1;
nodes = (
"384 0 LINE",
"448 0 LINE",
"448 64 LINE",
"512 64 LINE",
"512 128 LINE",
"448 128 LINE",
"384 128 LINE",
"384 64 LINE",
"320 64 LINE",
"256 64 LINE",
"256 128 LINE",
"256 192 LINE",
"320 192 LINE",
"384 192 LINE",
"384 256 LINE",
"320 256 LINE",
"256 256 LINE",
"256 320 LINE",
"256 384 LINE",
"320 384 LINE",
"384 384 LINE",
"384 320 LINE",
"448 320 LINE",
"512 320 LINE",
"512 384 LINE",
"448 384 LINE",
"448 448 LINE",
"384 448 LINE",
"320 448 LINE",
"256 448 LINE",
"192 448 LINE",
"192 384 LINE",
"128 384 LINE",
"128 320 LINE",
"128 256 LINE",
"64 256 LINE",
"64 192 LINE",
"128 192 LINE",
"128 128 LINE",
"128 64 LINE",
"192 64 LINE",
"192 0 LINE",
"256 0 LINE",
"320 0 LINE",
"384 0 LINE"
);
}
);
width = 512;
}
);
note = Euro;
unicode = 20AC;
},
{
glyphname = sterling;
layers = (
{
layerId = "1701E5CE-665D-45EA-89A5-8373A0C97990";
paths = (
{
closed = 1;
nodes = (
"384 64 LINE",
"320 64 LINE",
"256 64 LINE",
"256 128 LINE",
"256 192 LINE",
"320 192 LINE",
"320 256 LINE",
"256 256 LINE",
"256 320 LINE",
"256 384 LINE",
"320 384 LINE",
"320 320 LINE",
"384 320 LINE",
"448 320 LINE",
"448 384 LINE",
"384 384 LINE",
"384 448 LINE",
"320 448 LINE",
"256 448 LINE",
"192 448 LINE",
"192 384 LINE",
"128 384 LINE",
"128 320 LINE",
"128 256 LINE",
"64 256 LINE",
"64 192 LINE",
"128 192 LINE",
"128 128 LINE",
"128 64 LINE",
"64 64 LINE",
"64 0 LINE",
"128 0 LINE",
"192 0 LINE",
"256 0 LINE",
"320 0 LINE",
"384 0 LINE",
"448 0 LINE",
"448 64 LINE",
"384 64 LINE"
);
}
);
width = 448;
}
);
note = sterling;
unicode = 00A3;
},
{
glyphname = yen;
layers = (
{
layerId = "1701E5CE-665D-45EA-89A5-8373A0C97990";
paths = (
{
closed = 1;
nodes = (
"256 0 LINE",
"320 0 LINE",
"320 64 LINE",
"384 64 LINE",
"384 128 LINE",
"320 128 LINE",
"320 192 LINE",
"384 192 LINE",
"384 256 LINE",
"448 256 LINE",
"448 320 LINE",
"448 384 LINE",
"448 448 LINE",
"384 448 LINE",
"320 448 LINE",
"320 384 LINE",
"320 320 LINE",
"320 256 LINE",
"256 256 LINE",
"192 256 LINE",
"192 320 LINE",
"192 384 LINE",
"192 448 LINE",
"128 448 LINE",
"64 448 LINE",
"64 384 LINE",
"64 320 LINE",
"64 256 LINE",
"128 256 LINE",
"128 192 LINE",
"192 192 LINE",
"192 128 LINE",
"128 128 LINE",
"128 64 LINE",
"192 64 LINE",
"192 0 LINE",
"256 0 LINE"
);
}
);
width = 448;
}
);
note = yen;
unicode = 00A5;
},
{
glyphname = plus;
layers = (
{
layerId = "1701E5CE-665D-45EA-89A5-8373A0C97990";
paths = (
{
closed = 1;
nodes = (
"256 64 LINE",
"320 64 LINE",
"320 128 LINE",
"320 192 LINE",
"384 192 LINE",
"448 192 LINE",
"448 256 LINE",
"448 320 LINE",
"384 320 LINE",
"320 320 LINE",
"320 384 LINE",
"320 448 LINE",
"256 448 LINE",
"192 448 LINE",
"192 384 LINE",
"192 320 LINE",
"128 320 LINE",
"64 320 LINE",
"64 256 LINE",
"64 192 LINE",
"128 192 LINE",
"192 192 LINE",
"192 128 LINE",
"192 64 LINE",
"256 64 LINE"
);
}
);
width = 448;
}
);
note = plus;
unicode = 002B;
},
{
glyphname = multiply;
layers = (
{
layerId = "1701E5CE-665D-45EA-89A5-8373A0C97990";
paths = (
{
closed = 1;
nodes = (
"320 64 LINE",
"384 64 LINE",
"384 128 LINE",
"384 192 LINE",
"320 192 LINE",
"320 256 LINE",
"384 256 LINE",
"384 320 LINE",
"384 384 LINE",
"320 384 LINE",
"320 320 LINE",
"256 320 LINE",
"256 256 LINE",
"192 256 LINE",
"192 320 LINE",
"128 320 LINE",
"128 384 LINE",
"64 384 LINE",
"64 320 LINE",
"64 256 LINE",
"128 256 LINE",
"128 192 LINE",
"64 192 LINE",
"64 128 LINE",
"64 64 LINE",
"128 64 LINE",
"128 128 LINE",
"192 128 LINE",
"192 192 LINE",
"256 192 LINE",
"256 128 LINE",
"320 128 LINE",
"320 64 LINE"
);
}
);
width = 384;
}
);
note = multiply;
unicode = 00D7;
},
{
glyphname = divide;
layers = (
{
layerId = "1701E5CE-665D-45EA-89A5-8373A0C97990";
paths = (
{
closed = 1;
nodes = (
"256 128 LINE",
"192 128 LINE",
"192 64 LINE",
"256 64 LINE",
"320 64 LINE",
"320 128 LINE",
"256 128 LINE"
);
},
{
closed = 1;
nodes = (
"384 192 LINE",
"448 192 LINE",
"448 256 LINE",
"448 320 LINE",
"384 320 LINE",
"320 320 LINE",
"256 320 LINE",
"192 320 LINE",
"128 320 LINE",
"64 320 LINE",
"64 256 LINE",
"64 192 LINE",
"128 192 LINE",
"192 192 LINE",
"256 192 LINE",
"320 192 LINE",
"384 192 LINE"
);
},
{
closed = 1;
nodes = (
"256 448 LINE",
"192 448 LINE",
"192 384 LINE",
"256 384 LINE",
"320 384 LINE",
"320 448 LINE",
"256 448 LINE"
);
}
);
width = 448;
}
);
note = divide;
unicode = 00F7;
},
{
glyphname = equal;
layers = (
{
layerId = "1701E5CE-665D-45EA-89A5-8373A0C97990";
paths = (
{
closed = 1;
nodes = (
"384 64 LINE",
"448 64 LINE",
"448 128 LINE",
"448 192 LINE",
"384 192 LINE",
"320 192 LINE",
"256 192 LINE",
"192 192 LINE",
"128 192 LINE",
"64 192 LINE",
"64 128 LINE",
"64 64 LINE",
"128 64 LINE",
"192 64 LINE",
"256 64 LINE",
"320 64 LINE",
"384 64 LINE"
);
},
{
closed = 1;
nodes = (
"384 256 LINE",
"448 256 LINE",
"448 320 LINE",
"448 384 LINE",
"384 384 LINE",
"320 384 LINE",
"256 384 LINE",
"192 384 LINE",
"128 384 LINE",
"64 384 LINE",
"64 320 LINE",
"64 256 LINE",
"128 256 LINE",
"192 256 LINE",
"256 256 LINE",
"320 256 LINE",
"384 256 LINE"
);
}
);
width = 448;
}
);
note = equal;
unicode = 003D;
},
{
glyphname = greater;
layers = (
{
layerId = "1701E5CE-665D-45EA-89A5-8373A0C97990";
paths = (
{
closed = 1;
nodes = (
"128 0 LINE",
"192 0 LINE",
"192 64 LINE",
"256 64 LINE",
"256 128 LINE",
"320 128 LINE",
"320 192 LINE",
"384 192 LINE",
"384 256 LINE",
"320 256 LINE",
"320 320 LINE",
"256 320 LINE",
"256 384 LINE",
"192 384 LINE",
"192 448 LINE",
"128 448 LINE",
"64 448 LINE",
"64 384 LINE",
"64 320 LINE",
"128 320 LINE",
"128 256 LINE",
"192 256 LINE",
"192 192 LINE",
"128 192 LINE",
"128 128 LINE",
"64 128 LINE",
"64 64 LINE",
"64 0 LINE",
"128 0 LINE"
);
}
);
width = 384;
}
);
note = greater;
unicode = 003E;
},
{
glyphname = less;
layers = (
{
layerId = "1701E5CE-665D-45EA-89A5-8373A0C97990";
paths = (
{
closed = 1;
nodes = (
"320 0 LINE",
"384 0 LINE",
"384 64 LINE",
"384 128 LINE",
"320 128 LINE",
"320 192 LINE",
"256 192 LINE",
"256 256 LINE",
"320 256 LINE",
"320 320 LINE",
"384 320 LINE",
"384 384 LINE",
"384 448 LINE",
"320 448 LINE",
"256 448 LINE",
"256 384 LINE",
"192 384 LINE",
"192 320 LINE",
"128 320 LINE",
"128 256 LINE",
"64 256 LINE",
"64 192 LINE",
"128 192 LINE",
"128 128 LINE",
"192 128 LINE",
"192 64 LINE",
"256 64 LINE",
"256 0 LINE",
"320 0 LINE"
);
}
);
width = 384;
}
);
note = less;
unicode = 003C;
},
{
glyphname = asciitilde;
layers = (
{
layerId = "1701E5CE-665D-45EA-89A5-8373A0C97990";
paths = (
{
closed = 1;
nodes = (
"64 128 LINE",
"128 128 LINE",
"128 192 LINE",
"192 192 LINE",
"192 128 LINE",
"256 128 LINE",
"256 64 LINE",
"320 64 LINE",
"384 64 LINE",
"384 128 LINE",
"448 128 LINE",
"448 192 LINE",
"448 256 LINE",
"384 256 LINE",
"384 192 LINE",
"320 192 LINE",
"320 256 LINE",
"256 256 LINE",
"256 320 LINE",
"192 320 LINE",
"128 320 LINE",
"128 256 LINE",
"64 256 LINE",
"64 192 LINE",
"64 128 LINE"
);
}
);
width = 448;
}
);
note = asciitilde;
unicode = 007E;
},
{
glyphname = asciicircum;
layers = (
{
layerId = "1701E5CE-665D-45EA-89A5-8373A0C97990";
paths = (
{
closed = 1;
nodes = (
"448 128 LINE",
"512 128 LINE",
"512 192 LINE",
"512 256 LINE",
"448 256 LINE",
"448 320 LINE",
"384 320 LINE",
"384 384 LINE",
"320 384 LINE",
"320 448 LINE",
"256 448 LINE",
"256 384 LINE",
"192 384 LINE",
"192 320 LINE",
"128 320 LINE",
"128 256 LINE",
"64 256 LINE",
"64 192 LINE",
"64 128 LINE",
"128 128 LINE",
"192 128 LINE",
"192 192 LINE",
"256 192 LINE",
"256 256 LINE",
"320 256 LINE",
"320 192 LINE",
"384 192 LINE",
"384 128 LINE",
"448 128 LINE"
);
}
);
width = 512;
}
);
note = asciicircum;
unicode = 005E;
},
{
glyphname = percent;
layers = (
{
layerId = "1701E5CE-665D-45EA-89A5-8373A0C97990";
paths = (
{
closed = 1;
nodes = (
"448 0 LINE",
"512 0 LINE",
"512 64 LINE",
"512 128 LINE",
"448 128 LINE",
"384 128 LINE",
"384 64 LINE",
"384 0 LINE",
"448 0 LINE"
);
},
{
closed = 1;
nodes = (
"128 0 LINE",
"192 0 LINE",
"192 64 LINE",
"256 64 LINE",
"256 128 LINE",
"320 128 LINE",
"320 192 LINE",
"384 192 LINE",
"384 256 LINE",
"448 256 LINE",
"448 320 LINE",
"512 320 LINE",
"512 384 LINE",
"448 384 LINE",
"384 384 LINE",
"384 320 LINE",
"320 320 LINE",
"320 256 LINE",
"256 256 LINE",
"256 192 LINE",
"192 192 LINE",
"192 128 LINE",
"128 128 LINE",
"128 64 LINE",
"64 64 LINE",
"64 0 LINE",
"128 0 LINE"
);
},
{
closed = 1;
nodes = (
"128 256 LINE",
"192 256 LINE",
"192 320 LINE",
"192 384 LINE",
"128 384 LINE",
"64 384 LINE",
"64 320 LINE",
"64 256 LINE",
"128 256 LINE"
);
}
);
width = 512;
}
);
note = percent;
unicode = 0025;
},
{
glyphname = dieresis;
layers = (
{
layerId = "1701E5CE-665D-45EA-89A5-8373A0C97990";
paths = (
{
closed = 1;
nodes = (
"320 384 LINE",
"384 384 LINE",
"384 448 LINE",
"384 512 LINE",
"320 512 LINE",
"256 512 LINE",
"256 448 LINE",
"256 384 LINE",
"320 384 LINE"
);
},
{
closed = 1;
nodes = (
"128 384 LINE",
"192 384 LINE",
"192 448 LINE",
"192 512 LINE",
"128 512 LINE",
"64 512 LINE",
"64 448 LINE",
"64 384 LINE",
"128 384 LINE"
);
}
);
width = 384;
}
);
note = dieresis;
unicode = 00A8;
},
{
glyphname = grave;
layers = (
{
layerId = "1701E5CE-665D-45EA-89A5-8373A0C97990";
paths = (
{
closed = 1;
nodes = (
"128 256 LINE",
"192 256 LINE",
"192 320 LINE",
"192 384 LINE",
"128 384 LINE",
"128 448 LINE",
"64 448 LINE",
"64 384 LINE",
"64 320 LINE",
"128 320 LINE",
"128 256 LINE"
);
}
);
width = 192;
}
);
note = grave;
unicode = 0060;
},
